<svg width="168" height="168" viewBox="0 0 168 168" fill="none" xmlns="http://www.w3.org/2000/svg">
<g clip-path="url(#clip0_2427_322)">
<path fill-rule="evenodd" clip-rule="evenodd" d="M84 158C85.2692 158 87.5962 158 95.6346 153.349C100.288 150.811 104.096 148.274 107.481 145.737C110.865 143.2 114.038 140.663 117.635 137.703C121.019 134.954 123.981 131.783 126.308 128.611C128.846 125.017 130.962 121.423 132.231 118.251C133.288 115.291 134.346 112.331 134.981 109.371C135.827 105.777 136.462 102.183 136.673 99.0114C137.308 93.0914 137.731 81.2514 137.731 81.2514C137.731 81.2514 138.365 62.2229 138.365 57.7829C138.365 53.5543 138.365 40.4457 138.365 40.4457C138.365 40.4457 138.365 27.9714 137.731 23.32C137.519 21.6286 136.885 20.36 136.038 19.3029C134.769 17.6114 133.077 16.7657 132.442 16.5543C131.808 16.3429 129.481 15.4971 126.096 14.6514C123.769 14.0171 121.019 13.5943 117.846 12.96C101.346 10 84 10 84 10C84 10 66.6538 10 49.7308 12.96C46.5577 13.5943 43.8077 14.2286 41.4808 14.6514C38.0962 15.4971 35.7692 16.1314 35.1346 16.5543C34.5 16.7657 32.8077 17.6114 31.5385 19.3029C30.6923 20.36 30.0577 21.6286 29.8462 23.32C29 27.9714 29 40.4457 29 40.4457C29 40.4457 29 53.5543 29 57.7829C29 62.2229 29.6346 81.2514 29.6346 81.2514C29.6346 81.2514 30.0577 93.0914 30.6923 99.0114C31.1154 102.183 31.5385 105.777 32.3846 109.371C33.0192 112.331 34.0769 115.291 35.1346 118.251C36.4038 121.634 38.5192 125.229 41.0577 128.611C43.5962 131.783 46.3462 134.954 49.7308 137.703C53.3269 140.663 56.5 143.2 59.8846 145.737C63.2692 148.274 67.0769 150.6 71.7308 153.349C79.7692 158 82.0962 158 83.3654 158H83.5769H84Z" fill="black"/>
<path fill-rule="evenodd" clip-rule="evenodd" d="M137.731 23.32C137.731 21.84 136.885 20.5714 136.25 19.7257C134.769 17.8229 133.077 17.1886 132.865 17.1886C132.019 16.7657 129.692 16.1314 126.519 15.2857C124.192 14.6514 121.442 14.2286 118.269 13.5943C112.769 12.5371 107.058 11.9029 101.981 11.48C92.6731 10.6343 85.4808 10.6343 84.2116 10.6343H83.7885C82.7308 10.6343 75.327 10.6343 66.0193 11.48C60.9423 11.9029 55.2308 12.5371 49.7308 13.5943C46.5577 14.2286 43.8077 14.8629 41.4808 15.2857C38.3077 16.1314 35.9808 16.7657 35.1347 17.1886C35.1347 17.1886 34.077 17.6114 32.8077 18.6686C31.75 19.7257 30.4808 21.2057 30.2693 23.5314C30.0577 25.0114 29.8462 27.5486 29.8462 30.0857C29.8462 35.16 29.8462 40.6572 29.8462 40.8686V41.2914C29.8462 43.6171 29.8462 54.4 29.8462 58.2057C29.8462 62.0114 30.4808 78.2914 30.4808 81.2514V81.6743C30.4808 82.3086 30.9039 93.7257 31.5385 99.4343C31.9616 103.029 32.5962 106.411 33.2308 109.583C34.077 112.754 34.9231 115.714 35.9808 118.463C37.25 121.846 39.3654 125.44 41.9039 128.611C44.4423 131.783 47.4039 134.954 50.577 137.703C54.1731 140.663 57.3462 143.2 60.7308 145.737C64.1154 148.274 67.7116 150.6 72.3654 153.137C76.3847 155.463 78.9231 156.52 80.6154 157.154C82.3077 157.577 82.9423 157.577 83.577 157.577H84.4231C85.4808 157.577 87.5962 157.577 95.6347 153.137C100.288 150.6 103.885 148.274 107.269 145.737C110.654 143.2 113.827 140.663 117.423 137.703C120.596 135.166 123.558 131.994 126.096 128.611C128.635 125.229 130.75 121.846 132.019 118.463C133.077 115.714 133.923 112.754 134.769 109.583C135.615 106.411 136.038 103.029 136.462 99.4343C137.096 93.9371 137.519 82.9429 137.519 81.6743V81.2514C137.519 78.5029 138.154 62.0114 138.154 58.2057V51.6514V40.8686C138.154 40.8686 138.154 35.16 138.154 30.0857C138.154 27.5486 137.942 25.2229 137.731 23.5314V23.32Z" fill="#727476"/>
<path fill-rule="evenodd" clip-rule="evenodd" d="M136.885 23.5314C136.885 22.0514 136.039 20.9943 135.404 20.1486C134.135 18.4571 132.442 17.8229 132.442 17.8229C131.596 17.4 129.481 16.7657 126.096 16.1314C123.769 15.4971 121.019 15.0743 117.846 14.44C112.346 13.3829 106.635 12.7486 101.769 12.3257C92.4616 11.48 85.2693 11.48 84.0001 11.48H83.577C82.5193 11.48 75.1154 11.48 65.8077 12.3257C60.7308 12.7486 55.2308 13.3829 49.7308 14.44C46.5577 15.0743 43.8077 15.4971 41.4808 16.1314C38.3077 16.9771 35.9808 17.6114 35.1347 17.8229C34.9231 17.8229 33.2308 18.6686 32.1731 20.1486C31.5385 20.9943 30.9039 22.0514 30.6924 23.5314C30.4808 25.0114 30.2693 27.5486 30.2693 29.8743C30.2693 34.9486 30.2693 40.4457 30.2693 40.4457C30.2693 41.5029 30.2693 53.5543 30.2693 57.7829C30.2693 61.8 30.9039 78.08 30.9039 80.8286V81.2514C30.9039 81.8857 31.327 93.3028 31.9616 99.0114C32.3847 102.606 33.0193 105.989 33.6539 109.16C34.2885 112.331 35.3462 115.291 36.4039 117.829C37.6731 121.211 39.7885 124.594 42.327 127.977C44.8654 131.149 47.6154 134.32 50.7885 136.857C54.3847 139.817 57.5577 142.354 60.9424 144.891C64.327 147.429 67.9231 149.754 72.577 152.291C76.5962 154.617 78.9231 155.674 80.6154 156.097C82.0962 156.52 82.9424 156.52 83.3654 156.52H84.2116C84.6347 156.52 85.2693 156.52 86.9616 156.097C88.6539 155.463 91.1924 154.406 95.0001 152.291C99.6539 149.754 103.25 147.429 106.635 144.891C110.019 142.354 113.192 139.817 116.789 136.857C119.962 134.32 122.923 131.149 125.25 127.977C127.577 124.806 129.692 121.211 131.173 117.829C132.231 115.291 133.077 112.331 133.923 109.16C134.558 105.989 135.192 102.606 135.615 99.0114C135.615 97.1086 136.039 94.5714 136.25 91.8229C136.462 86.7486 136.673 81.6743 136.673 81.2514V80.6171C136.673 77.0229 137.308 61.5886 137.308 57.7829C137.308 55.6686 137.308 51.8629 137.308 48.0571V40.4457C137.308 40.4457 137.308 34.7371 137.308 29.8743C137.308 27.3371 137.096 25.0114 136.885 23.5314Z" fill="white"/>
<path fill-rule="evenodd" clip-rule="evenodd" d="M83.5769 155.886C82.7307 155.886 80.8269 155.886 73.2115 151.657C64.1153 146.583 58.6153 142.143 51.6346 136.434C45.5 131.36 40.2115 124.383 37.4615 117.617C35.3461 112.331 33.8653 105.989 33.0192 99.0114C32.3846 93.3029 31.9615 81.4629 31.9615 81.4629C31.9615 80.6171 31.3269 62.2229 31.1153 57.9943C31.1153 53.7657 31.1153 40.8686 30.9038 40.6571C30.9038 40.6571 30.9038 28.1829 31.5384 23.7429C31.9615 19.9371 35.5577 18.6686 35.5577 18.6686C37.0384 18.0343 42.3269 16.5543 49.9423 15.0743C65.5961 12.3257 81.8846 12.1143 83.5769 12.1143H84C85.9038 12.1143 101.981 12.1143 117.635 15.0743C125.25 16.5543 130.538 18.0343 132.019 18.6686C132.019 18.6686 135.615 20.1486 136.038 23.7429C136.673 28.1829 136.673 40.6571 136.673 40.6571C136.673 42.7714 136.673 53.9771 136.673 57.9943C136.673 62.0114 136.038 79.3486 136.038 81.4629C136.038 81.8857 135.615 93.5143 134.981 99.2229C134.135 106.411 132.654 112.754 130.538 117.829C127.788 124.594 122.5 131.571 116.365 136.646C109.173 142.566 103.885 146.794 94.7884 151.869C87.173 156.097 85.0577 156.097 84.2115 156.097H83.3653L83.5769 155.886Z" fill="black"/>
<path fill-rule="evenodd" clip-rule="evenodd" d="M128.635 17.4C129.058 17.4 129.481 17.6114 129.904 17.8229L136.462 24.3771C136.462 24.5886 136.462 25.0114 136.462 25.2229L128.423 17.1886L128.635 17.4ZM126.308 16.7657L136.673 27.1257V26.28L127.365 16.9771C126.942 16.9771 126.731 16.9771 126.308 16.7657ZM123.981 16.1314L136.885 29.0286V28.1829L125.25 16.5543H124.192C124.192 16.4133 124.192 16.3429 124.192 16.3429L123.981 16.1314ZM121.654 15.7086L136.885 30.9314V30.0857L122.712 15.92H121.654C121.654 15.7086 121.654 15.7086 121.654 15.7086ZM119.538 15.2857L136.885 32.6229V31.7771L120.596 15.4971H119.538V15.2857ZM117.423 14.8629L137.096 34.5257V33.68L118.481 15.0743H118.058H117.423V14.8629ZM115.308 14.44L137.096 36.2171V35.3714L116.365 14.6514H115.308V14.44ZM113.192 14.2286L137.096 38.12V37.2743L114.25 14.44H113.192V14.2286ZM111.077 13.8057L137.096 39.8114V38.9657L112.135 14.0171H111.077V13.8057ZM108.962 13.5943L136.885 41.5029V40.6571L110.019 13.8057H108.962V13.5943ZM107.058 13.3829L137.096 43.4057V42.56L107.904 13.3829H106.846H107.058ZM104.942 13.1714L136.885 45.0971V44.2514L106 13.1714H104.942ZM103.038 12.96L136.885 46.7886V45.9429L104.096 12.96H103.038ZM101.135 12.7486L136.885 48.48V47.6343L101.981 12.96H101.135V12.7486ZM99.2307 12.5371L136.885 50.1714V49.3257L100.077 12.7486H99.2307V12.5371ZM97.3269 12.5371L136.885 52.0743V51.2286L98.173 12.5371H97.3269ZM95.423 12.3257L136.885 53.7657V52.92L96.2692 12.5371H95.423V12.3257ZM93.5192 12.3257L136.885 55.6686V54.8229L94.5769 12.3257H93.7307H93.5192ZM91.6154 12.1143L136.673 57.1486V56.3029L92.673 12.3257H91.8269L91.6154 12.1143ZM89.923 12.1143L136.885 59.0514V58.2057L90.7692 12.1143H89.923ZM88.0192 12.1143L136.673 60.7429V59.8971L88.8654 12.1143H88.0192ZM86.3269 12.1143L136.885 62.6457V61.8L87.173 12.1143H86.3269ZM84.423 12.1143L136.673 64.3371V63.4914L85.2692 12.1143H84.423ZM82.7307 12.1143L136.673 66.0286V65.1829L83.5769 12.1143H82.7307ZM81.0384 12.1143L136.673 67.72V66.8743L81.8846 12.1143H81.0384ZM79.1346 12.1143L136.462 69.4114V68.5657L79.9807 12.1143H79.1346ZM77.4423 12.1143L136.462 71.1029V70.2571L78.2884 12.1143H77.4423ZM75.75 12.1143L136.25 72.5829V71.7371L76.5961 12.1143H75.75ZM74.0577 12.3257L136.25 74.4857V73.64L74.9038 12.3257H74.0577ZM72.3654 12.3257L136.25 76.1771V75.3314L73.2115 12.3257H72.3654ZM70.8846 12.5371L136.25 77.8686V77.0229L71.5192 12.5371H70.673H70.8846ZM69.1923 12.5371L136.25 79.56V78.7143L70.0384 12.5371H69.1923ZM67.5 12.7486L136.038 81.2514V80.4057L68.3461 12.7486H67.5ZM65.8077 12.96L136.038 83.1543V82.3086L66.6538 12.7486H65.8077V12.96ZM64.3269 12.96L136.038 84.6343V83.7886L64.9615 12.96H64.1154H64.3269ZM62.6346 13.1714L135.827 86.3257V85.48L63.4807 13.1714H62.6346ZM60.9423 13.3829L135.615 88.0171V87.1714L61.7884 13.1714H60.9423V13.3829ZM59.4615 13.5943L135.827 89.92V89.0743L60.3077 13.3829H59.4615V13.5943ZM57.7692 13.8057L135.615 91.6114V90.7657L58.6154 13.5943H57.7692V13.8057ZM56.2884 14.0171L135.615 93.0914V92.2457L57.1346 13.8057H56.2884V14.0171ZM54.8077 14.2286L135.404 94.7829V93.9371L55.4423 14.0171H54.5961L54.8077 14.2286ZM53.1154 14.44L135.192 96.4743V95.6286L53.9615 14.2286H53.1154V14.44ZM51.6346 14.6514L135.192 98.1657V97.32L52.4807 14.44H51.6346V14.6514ZM50.1538 14.8629L134.981 99.6457V99.0114L51 14.8629H50.1538ZM48.673 15.2857L134.769 101.337V100.491L49.5192 15.0743H48.8846L48.673 15.2857ZM47.1923 15.4971L134.558 102.817V102.183L48.0384 15.2857H47.4038L47.1923 15.4971ZM45.7115 15.7086L134.346 104.297V103.663L46.5577 15.7086H45.923H45.7115ZM44.2307 16.1314L133.923 105.777V105.143L44.8654 16.1314H44.2307ZM42.9615 16.3429L133.923 107.257V106.623L43.8077 16.3429H43.173H42.9615ZM41.4807 16.7657L133.5 108.737V108.103L42.1154 16.7657H41.4807ZM40 17.1886L133.077 110.217V109.583L40.6346 17.1886H40ZM38.7307 17.4L132.865 111.486V110.851L39.3654 17.4H38.7307ZM37.25 17.8229L132.231 112.754V112.12L37.8846 17.6114H37.25V17.8229ZM35.9807 18.4571L132.019 114.446V113.811C132.231 113.6 36.6154 18.0343 36.6154 18.0343C36.4038 18.0343 36.1923 18.0343 35.9807 18.0343V18.4571ZM34.7115 18.88L131.385 115.503V114.869C131.596 114.869 35.3461 18.6686 35.3461 18.6686C35.3461 18.6686 34.923 18.6686 34.7115 19.0914V18.88ZM33.6538 19.7257L130.962 116.983C130.962 116.983 130.962 116.56 131.173 116.349L34.2884 19.3029C34.2884 19.3029 33.8654 19.5143 33.8654 19.7257H33.6538ZM33.0192 20.5714L130.538 118.04V117.617H130.75L33.2307 20.1486C33.2307 20.1486 33.0192 20.36 32.8077 20.5714H33.0192ZM32.173 21.6286L129.904 119.309V118.674C130.115 118.674 32.5961 21.2057 32.5961 21.2057C32.5961 21.2057 32.3846 21.6286 32.3846 21.84L32.173 21.6286ZM31.75 23.1086L129.269 120.577V119.943C129.692 119.943 31.9615 22.2629 31.9615 22.2629C31.9615 22.2629 31.9615 22.6857 31.9615 22.8971L31.75 23.1086ZM31.5384 24.5886L128.846 121.846V121.211C129.058 121.211 31.5384 23.7429 31.5384 23.7429C31.5384 23.9543 31.5384 24.1657 31.5384 24.5886ZM31.3269 26.28V25.4343L128.423 122.269L128 122.903L31.3269 26.28ZM31.3269 27.76V26.9143L127.788 123.326L127.365 123.749L31.3269 27.76ZM31.1154 29.4514V28.6057L126.942 124.383L126.519 124.806L31.1154 29.4514ZM31.1154 31.1429V30.2971L126.308 125.44L125.885 125.863L31.1154 31.1429ZM31.1154 33.0457V32.2L125.673 126.709L125.25 127.131L31.1154 33.0457ZM31.1154 34.7371V33.8914L125.038 127.554L124.615 127.977L31.1154 34.7371ZM31.1154 36.4286V35.5829L124.192 128.611L123.769 129.034L31.1154 36.4286ZM31.1154 38.12V37.2743L123.346 129.457L122.923 129.88L31.1154 38.12ZM31.1154 40.0229V39.1771L122.712 130.726L122.288 131.149L31.1154 40.0229ZM31.1154 41.7143V40.8686L121.865 131.571L121.442 131.994L31.1154 41.7143ZM31.1154 43.4057V42.56L121.019 132.417L120.596 132.84L31.1154 43.4057ZM31.1154 45.3086V44.4629L119.962 133.263L119.538 133.686L31.1154 45.3086ZM31.1154 47V46.1543L119.115 134.109L118.692 134.531L31.1154 47ZM31.1154 48.9029V48.0571L118.269 135.166L117.846 135.589L31.1154 48.9029ZM31.1154 50.5943V49.7486L117.212 135.8L116.788 136.223L31.1154 50.5943ZM31.1154 52.4971V51.6514L116.154 136.646L115.731 137.069L31.1154 52.4971ZM31.1154 54.1886V53.3429L115.308 137.491L114.885 137.914L31.1154 54.1886ZM31.1154 56.0914V55.2457L114.25 138.337L113.827 138.76L31.1154 56.0914ZM31.1154 57.7829V56.9371L113.192 138.971L112.769 139.394L31.1154 57.7829ZM31.3269 59.6857V58.84L112.346 140.029L111.923 140.451L31.3269 59.6857ZM31.3269 61.3771V60.5314L111.288 140.663L110.865 141.086L31.3269 61.3771ZM31.3269 63.28V62.4343L110.442 141.509L110.019 141.931L31.3269 63.28ZM31.3269 64.9714V64.1257L109.385 142.143L108.962 142.566L31.3269 64.9714ZM31.5384 66.8743V66.0286L108.327 142.989L107.904 143.411L31.5384 66.8743ZM31.5384 68.7771V67.9314L107.269 143.834L106.846 144.257L31.5384 68.7771ZM31.5384 70.4686V69.6229L106.212 144.469L105.788 144.891L31.5384 70.4686ZM31.75 72.3714V71.5257L105.365 145.103L104.942 145.526L31.75 72.3714ZM31.75 74.2743V73.4286L104.308 145.949L103.885 146.371L31.75 74.2743ZM31.75 75.9657V75.12L103.25 146.583L102.827 147.006L31.75 75.9657ZM31.75 77.8686V77.0229L101.981 147.429L101.558 147.851L31.75 77.8686ZM31.9615 79.7714V78.9257L101.135 148.063L100.712 148.486L31.9615 79.7714ZM31.9615 81.4629C31.9615 81.2514 31.9615 80.6171 31.9615 80.6171L100.077 148.697L99.6538 149.12L31.9615 81.4629ZM31.9615 83.3657V82.52L98.8077 149.331L98.3846 149.754L31.9615 83.3657ZM32.173 85.2686V84.4229L97.9615 150.177L97.3269 150.6L32.173 85.2686ZM32.173 87.1714V86.3257L96.6923 150.811L96.0577 151.234L32.173 87.1714ZM32.173 88.8629V88.0171L95.423 151.234L94.7884 151.657L32.173 88.8629ZM32.3846 90.7657V89.92L94.3654 152.08L93.7307 152.503L32.3846 90.7657ZM32.3846 92.6686V91.8229L93.0961 152.714H92.4615C92.4615 152.926 32.173 92.88 32.173 92.88L32.3846 92.6686ZM32.5961 94.5714V93.7257L92.0384 153.349H91.4038C91.4038 153.56 32.3846 94.7829 32.3846 94.7829L32.5961 94.5714ZM32.8077 96.4743V95.6286L90.9807 153.771H90.3461C90.3461 153.983 32.8077 96.4743 32.8077 96.4743ZM33.0192 98.3771V97.32L89.923 154.194H89.2884C89.2884 154.406 33.0192 98.1657 33.0192 98.1657V98.3771ZM33.2307 100.491C33.2307 100.069 33.2307 99.8571 33.2307 99.4343L88.6538 154.829C88.4423 154.829 88.2307 154.829 88.0192 155.04L33.2307 100.491ZM33.4423 102.394C33.4423 101.971 33.4423 101.76 33.4423 101.337L87.3846 155.251C87.173 155.251 86.9615 155.251 86.75 155.251L33.4423 102.394ZM33.8654 104.509C33.8654 104.086 33.8654 103.874 33.8654 103.451L86.1154 155.674C85.9038 155.674 85.6923 155.674 85.4807 155.674L33.8654 104.509ZM56.0769 140.029L42.1154 126.074C42.9615 127.343 44.0192 128.611 45.0769 129.88L51.423 136.223H51.6346C53.1154 137.703 54.5961 138.971 56.0769 140.029ZM63.0577 145.526C62 144.891 60.9423 144.046 59.8846 143.2L40.2115 123.537C39.7884 122.903 39.3654 122.269 38.9423 121.423L62.8461 145.314L63.0577 145.526ZM68.3461 148.909C67.5 148.486 66.6538 147.851 66.0192 147.429L38.3077 119.731C38.0961 119.309 37.8846 118.674 37.673 118.251L68.3461 148.909ZM72.5769 151.446C71.9423 151.023 71.0961 150.6 70.4615 150.177L36.8269 116.56C36.8269 116.137 36.4038 115.714 36.4038 115.291L72.5769 151.446ZM76.5961 153.56C75.9615 153.349 75.5384 152.926 74.6923 152.714L35.9807 113.811C35.9807 113.389 35.7692 112.966 35.5577 112.543L76.3846 153.349L76.5961 153.56ZM79.7692 155.04C79.3461 155.04 78.7115 154.617 78.2884 154.406L35.3461 111.486C35.3461 111.063 35.3461 110.64 34.923 110.429L79.7692 155.251V155.04ZM82.5192 155.886C82.3077 155.886 81.8846 155.886 81.25 155.463L34.7115 108.949C34.7115 108.526 34.7115 108.314 34.5 107.891L82.5192 155.886ZM83.5769 155.886L34.2884 106.834C34.2884 106.411 34.2884 106.2 34.2884 105.777L84.6346 156.097H84L83.5769 155.886ZM131.173 18.0343L136.462 23.32C136.462 22.8971 136.462 22.4743 136.038 22.0514L132.442 18.4571C132.231 18.4571 131.808 18.2457 131.173 18.0343Z" fill="#3E3E3E"/>
<path fill-rule="evenodd" clip-rule="evenodd" d="M90.3461 109.371C90.3461 109.371 88.2308 111.063 85.4808 109.371C85.4808 109.371 76.5961 109.794 71.7308 105.143C71.7308 105.143 69.6154 103.451 70.0384 102.817C70.25 102.394 71.3077 102.817 71.3077 102.817C71.3077 102.817 70.6731 101.76 70.0384 101.549C69.4038 101.337 68.7692 99.8572 68.7692 99.8572C68.7692 99.8572 62.8461 98.5886 61.7884 94.1486C61.7884 94.1486 59.6731 96.4743 59.6731 100.491C59.6731 100.491 61.1538 101.971 61.7884 102.817C62.4231 103.663 63.0577 104.509 63.4808 104.72C63.9038 104.72 65.5961 105.777 65.3846 109.371C65.1731 112.966 60.5192 112.754 59.8846 111.486C59.8846 111.486 58.8269 113.177 56.5 112.966C54.1731 112.966 53.9615 110.64 53.9615 110.64C53.9615 110.64 52.0577 113.6 49.3077 111.274C46.3461 108.949 48.4615 104.931 50.1538 104.509C50.1538 104.509 50.3654 101.971 52.6923 100.491C52.6923 100.491 52.6923 99.0114 51.8461 94.7829C51 90.5543 50.1538 87.1714 53.5384 79.3486L54.3846 79.7714C54.3846 79.7714 53.9615 73.4286 54.5961 68.7771C55.2308 64.1257 56.0769 63.28 56.0769 63.28C56.0769 63.28 53.9615 59.8971 51.6346 60.5314C51.6346 60.5314 48.0385 62.8571 47.6154 63.28C47.6154 63.28 46.3461 66.8743 45.9231 69.6229C45.5 71.9486 45.5 74.2743 45.7115 75.7543C45.7115 75.7543 45.7115 76.3886 46.9808 76.8114C47.8269 77.0229 50.1538 78.7143 50.5769 80.6172C51 82.52 50.1538 84.2114 48.25 84.4229C46.9808 84.4229 45.9231 84 45.5 83.5771C45.5 83.5771 44.0192 84.6343 42.1154 84.6343C40.2115 84.6343 39.3654 82.9429 39.3654 82.9429C39.3654 82.9429 35.9808 85.0571 34.7115 82.52C33.2308 80.1943 34.7115 77.4457 37.25 76.1771C37.25 76.1771 38.9423 74.4857 39.7885 68.7771C39.7885 68.7771 40.2115 66.24 40 63.9143C40 61.5886 39.3654 59.8971 41.4808 57.7829L42.1154 58.6286C42.1154 58.6286 44.4423 50.5943 49.3077 45.7314C49.3077 45.7314 49.7308 37.2743 58.6154 32.8343C58.6154 32.8343 57.7692 26.7029 62 23.9543C66.2308 21.2057 73.8461 22.2629 80.1923 25.8572C86.5385 29.24 93.7308 36.4286 98.8077 39.1772C103.673 41.9257 105.154 41.08 106.212 40.4457C106.635 40.0229 112.558 34.5257 112.981 33.4686C113.404 32.6229 112.981 30.5086 111.923 27.3372C110.865 24.1657 113.827 27.3371 114.25 27.76C114.673 28.1829 119.327 33.0457 118.058 40.0229C117 46.5771 107.692 47.6343 103.673 46.3657C98.5961 44.8857 94.5769 41.08 93.0961 39.8114C91.6154 38.5429 82.9423 30.9314 75.9615 27.1257C68.9808 23.5314 63.4808 24.8 62 27.1257C60.7308 29.24 61.1538 32.2 62.8461 31.9886C64.5384 31.9886 73 30.2972 78.0769 36.4286C83.1538 42.56 81.25 48.0572 81.25 48.0572C81.25 48.0572 81.0384 49.3257 82.0961 48.6914C83.1538 48.0571 86.1154 47.4229 88.6538 49.1143C91.1923 50.8057 90.5577 51.44 90.1346 51.44C89.0769 51.8629 83.3654 51.0172 82.5192 51.6514C81.4615 52.2857 82.7308 52.7086 80.4038 54.1886C78.0769 55.88 77.6538 59.2629 79.3461 60.9543C80.8269 62.4343 81.8846 63.4914 87.3846 62.8571C92.8846 62.2229 96.9038 62.0114 99.0192 64.3371C101.558 67.0857 100.077 69.4114 100.077 69.4114C100.077 69.4114 106.635 68.1429 110.865 71.7371C114.885 75.12 114.038 80.1943 110.865 81.6743C110.865 81.6743 115.096 83.1543 115.519 84.8457C116.154 86.5372 114.885 88.2286 112.981 90.1314C111.077 92.0343 110.231 92.2457 109.596 92.4572C109.596 92.4572 109.808 94.9943 108.75 95.2057C107.692 95.4172 107.269 94.1486 107.058 94.1486C106.846 94.1486 105.788 93.5143 104.942 94.9943C104.308 96.2629 104.096 97.5314 104.942 97.32C105.577 97.32 108.962 96.6857 107.904 99.4343C106.846 102.183 106.212 103.451 107.058 105.354C107.904 107.469 112.769 111.697 115.096 112.966C117.423 114.023 119.327 115.714 120.385 115.503C121.442 115.08 123.346 113.6 125.462 116.137C127.577 118.674 127.788 122.057 126.308 123.114C124.827 124.383 123.346 122.691 123.135 122.057C123.135 122.057 119.962 124.806 115.942 122.691C115.942 122.691 111.923 124.383 109.173 122.057C106.635 119.943 106.846 117.406 106.846 117.406C106.846 117.406 103.673 116.983 103.673 113.6C103.673 113.6 103.25 112.966 101.981 112.331C100.712 111.697 97.5384 110.217 97.1154 109.16C97.1154 109.16 95.2115 110.217 93.5192 108.737C93.5192 108.737 91.8269 109.794 90.7692 108.737L90.3461 109.371Z" fill="black"/>
<path fill-rule="evenodd" clip-rule="evenodd" d="M119.75 117.406C119.75 117.406 120.385 117.406 121.231 116.771C121.865 116.137 122.712 115.926 123.769 116.771C124.827 117.617 125.885 119.097 125.885 120.789C125.885 122.057 124.404 122.057 123.981 121.211C123.981 120.789 123.346 120.577 123.135 120.577C122.5 120.577 121.865 121.846 120.385 122.269C119.327 122.48 118.692 122.691 117 122.269C117 121.846 117.212 121.211 117 120.154C116.577 118.886 115.942 117.617 116.577 117.194C117.212 116.771 118.058 116.771 118.904 117.617C119.538 118.04 119.962 118.04 119.962 118.04L119.75 117.406Z" fill="white"/>
<path fill-rule="evenodd" clip-rule="evenodd" d="M111.923 122.269C111.923 122.269 109.385 121.846 108.327 119.52C107.269 117.194 108.75 115.291 111.077 115.714C113.615 116.137 114.885 117.829 115.308 119.52C115.731 121.211 114.885 122.903 112.135 122.269H111.923Z" fill="white"/>
<path fill-rule="evenodd" clip-rule="evenodd" d="M105.788 111.697C105.788 111.697 103.673 114.446 106.212 116.56C106.212 116.56 106.635 116.983 107.269 116.56C107.904 116.137 109.173 114.657 110.865 114.657C112.558 114.657 113.615 115.503 113.827 115.714C113.827 115.714 114.038 115.714 114.462 115.714C114.673 115.714 115.942 115.08 116.577 115.08H117C117 115.08 117 115.08 116.577 114.869C116.154 114.657 113.615 113.6 112.346 112.331C111.077 111.063 110.019 110.64 108.538 110.64C107.058 110.64 106.212 111.909 106.212 111.909L105.788 111.697Z" fill="white"/>
<path fill-rule="evenodd" clip-rule="evenodd" d="M99.0192 104.297C99.0192 104.297 97.3269 106.834 97.9615 108.103C98.5961 109.371 99.8653 109.794 100.5 110.006C101.135 110.217 102.615 111.063 103.038 111.697C103.038 111.697 103.038 111.909 103.461 111.697C103.461 111.486 105.577 109.16 107.269 108.526C107.269 108.526 107.904 108.526 107.269 108.103C106.635 107.891 105.577 106.834 105.365 105.777C105.154 104.72 105.788 103.24 104.942 102.606C104.096 101.971 100.923 101.549 99.0192 104.509V104.297Z" fill="white"/>
<path fill-rule="evenodd" clip-rule="evenodd" d="M97.9615 102.606C97.9615 102.606 97.1153 103.874 96.9038 105.143C96.9038 106.2 96.9038 107.891 96.0576 108.314C95.2115 108.737 93.7307 107.891 93.7307 107.046C93.7307 106.2 93.7307 104.297 93.9423 103.029C94.3653 101.76 94.7884 101.337 96.0576 101.337C97.3269 101.337 97.3269 101.549 97.5384 101.76C97.7499 101.76 98.3846 102.183 97.9615 102.394V102.606Z" fill="white"/>
<path fill-rule="evenodd" clip-rule="evenodd" d="M90.7693 102.817C90.7693 103.874 90.3462 105.777 90.3462 107.046C90.3462 108.314 91.827 108.103 92.25 107.68C92.25 107.469 92.25 107.257 92.25 106.411C92.25 105.566 92.25 104.297 92.6731 103.029C92.8847 101.971 93.7308 100.703 93.7308 100.491C93.9423 100.28 93.9423 99.4343 93.5193 99.0114C92.8847 98.5886 92.25 99.0114 92.0385 99.0114C91.827 99.4343 90.9808 100.703 90.7693 102.394V102.817Z" fill="white"/>
<path fill-rule="evenodd" clip-rule="evenodd" d="M86.3269 106.623C86.3269 106.623 86.3269 108.737 88.0192 108.737C89.7115 108.737 89.7115 107.469 89.5 106.411C89.2884 105.354 88.8654 102.817 89.5 101.126C90.1346 99.4343 91.1923 98.1657 91.6154 97.9543C92.0384 97.5314 92.25 97.1086 91.8269 96.8971C91.4038 96.6857 90.9808 96.8971 90.5577 96.8971C90.1346 96.8971 88.0192 99.2228 87.3846 101.337C86.75 103.451 86.5384 104.72 86.3269 106.623Z" fill="white"/>
<path fill-rule="evenodd" clip-rule="evenodd" d="M103.25 79.7714C102.827 79.7714 101.558 80.1943 101.135 80.4057C100.712 80.6171 99.8654 81.04 99.4424 80.4057C99.0193 79.9828 97.9616 78.7143 97.9616 78.2914C97.9616 78.2914 97.5385 77.4457 97.9616 77.0229C98.3847 76.8114 99.0193 77.0229 99.4424 77.0229C99.4424 77.0229 100.5 77.6571 100.923 78.08C101.346 78.5029 101.981 78.9257 102.404 78.9257H103.039C103.039 78.9257 103.673 78.9257 103.885 78.9257C104.096 78.9257 103.885 79.3486 103.673 79.3486L103.25 79.7714ZM93.3077 69.8343C92.8847 69.8343 91.6154 69.4114 90.3462 69.8343C89.077 70.4686 89.7116 71.5257 89.7116 71.5257C90.3462 72.3714 90.5577 72.7943 90.5577 72.7943C90.5577 73.2171 90.5577 74.4857 89.5 74.4857C88.4424 74.4857 87.8077 73.4286 87.5962 72.3714C87.3847 71.3143 87.5962 71.1029 87.5962 70.4686C87.5962 69.8343 87.8077 68.9886 89.5 68.5657C91.4039 68.1429 92.6731 68.5657 93.3077 68.5657C93.9424 68.5657 93.9424 69.4114 93.5193 69.4114L93.3077 69.8343ZM85.0577 79.9828C83.7885 80.8286 82.0962 82.7314 81.25 84C81.25 84 80.1924 85.6914 79.9808 86.1143C79.9808 86.3257 78.9231 88.2286 78.5 88.6514C78.077 89.0743 77.2308 91.1886 76.1731 92.2457C75.5385 92.88 73.8462 94.36 71.5193 94.9943C71.5193 94.9943 69.1924 95.6286 67.2885 94.9943C65.3847 94.1486 63.4808 92.2457 64.1154 88.8628C64.75 85.48 67.2885 84.4228 68.3462 84.2114C69.4039 84 73.6347 83.3657 74.4808 86.1143C75.1154 88.2286 73.4231 89.2857 72.7885 89.2857C72.1539 89.2857 71.9424 89.0743 71.9424 88.44C71.9424 87.8057 71.7308 87.1714 71.3077 86.96C70.8847 86.7486 69.6154 86.3257 68.5577 86.96C67.5 87.5943 66.8654 89.0743 67.5 90.5543C68.1347 91.8228 68.9808 92.88 71.3077 92.88C73.6347 92.88 75.9616 90.9771 76.5962 89.7086C77.2308 88.44 79.1347 85.0571 79.9808 84.2114C80.827 83.3657 82.5193 81.04 84 80.1943C85.2693 79.56 85.9039 79.56 85.9039 79.7714C85.9039 79.7714 85.9039 79.9829 85.0577 80.6171V79.9828ZM111.077 74.4857C110.019 72.7943 107.904 70.4686 104.308 70.2571C103.462 70.2571 101.558 70.2571 100.077 70.2571C100.077 70.2571 97.9616 70.8914 96.9039 69.6229C95.8462 68.3543 95.6347 66.8743 94.1539 66.24C94.1539 66.24 93.7308 66.24 93.3077 66.0286C93.0962 66.0286 92.8847 65.6057 93.3077 65.6057C93.7308 65.6057 94.7885 65.6057 95.6347 66.24C96.4808 66.8743 97.1154 68.1429 97.327 68.3543C97.327 68.7771 97.9616 69.2 98.5962 68.9886C99.2308 68.7771 99.2308 68.1428 99.0193 67.0857C98.5962 66.0286 97.9616 63.9143 94.7885 63.28C94.7885 63.28 93.7308 63.28 94.3654 63.4914L94.7885 63.9143C94.7885 63.9143 95 63.9143 94.7885 64.1257C94.7885 64.1257 94.3654 64.1257 93.9424 64.1257C93.3077 63.9143 91.6154 63.7028 89.7116 63.7028C87.8077 63.7028 86.327 63.9143 85.6924 64.1257C84.8462 64.1257 82.7308 64.76 80.4039 63.7028C80.4039 63.7028 76.5962 62.0114 76.5962 59.4743C76.5962 56.9371 77.6539 55.4571 78.2885 54.8229C78.9231 54.1886 79.5577 53.7657 79.7693 53.7657C79.7693 53.7657 79.9808 53.7657 79.9808 53.3428C79.9808 53.1314 79.7693 53.3428 79.5577 53.3428C79.5577 53.3428 76.1731 53.9771 74.9039 55.88C74.9039 55.88 73.6347 57.7828 73.6347 60.5314C73.6347 63.28 75.5385 65.1828 77.8654 65.8171C80.1924 66.4514 82.7308 66.8743 84.8462 66.6628C86.327 66.6628 89.077 66.24 90.5577 66.4514C90.5577 66.4514 92.0385 66.4514 92.25 67.0857C92.25 67.0857 92.25 67.2971 92.25 67.5086C92.25 67.5086 90.7693 67.5086 90.1347 67.5086C89.5 67.5086 86.1154 67.9314 85.2693 68.1428C84.4231 68.1428 81.8847 68.3543 79.3462 68.1428C76.8077 68.1428 73.6347 66.24 72.3654 64.9714C71.0962 63.7028 70.6731 62.4343 70.6731 60.32C70.6731 60.32 70.6731 58.4171 71.7308 56.7257C72.577 55.2457 75.5385 52.4971 80.1924 51.44C80.1924 51.44 83.1539 50.5943 88.0193 51.0171C88.0193 51.0171 88.6539 51.0171 88.0193 50.5943C88.0193 50.5943 86.327 48.6914 83.7885 48.6914C83.7885 48.6914 82.5193 48.6914 81.4616 49.3257C80.4039 49.96 79.5577 49.7486 78.9231 49.1143C78.5 48.2686 76.1731 45.7314 71.9424 46.1543C67.7116 46.7886 66.8654 49.7486 66.6539 50.3829C66.4424 51.0171 66.0193 53.7657 64.327 53.7657C62.6347 53.7657 62.2116 52.92 62 52.92C62 52.92 61.577 52.7086 61.577 52.92C61.577 53.1314 59.25 56.3028 58.4039 58.2057C57.5577 60.1086 56.5 62.8571 55.8654 65.8171C55.2308 68.5657 54.8077 71.3143 54.8077 73.64C54.8077 75.9657 54.8077 79.56 55.2308 80.6171C55.4424 81.8857 55.8654 83.3657 57.1347 83.3657C58.4039 83.3657 59.0385 82.7314 59.0385 81.6743C59.0385 80.6171 59.25 76.8114 59.8847 74.4857C60.3077 72.16 61.7885 67.9314 62.2116 66.24C62.8462 64.76 65.1731 59.6857 65.8077 58.6286C66.4424 57.5714 68.7693 53.7657 70.0385 52.92C71.3077 52.0743 72.1539 52.0743 72.7885 52.2857C73.4231 52.4971 72.7885 52.7086 72.7885 52.92C72.7885 53.1314 69.1924 54.1886 68.5577 56.5143C67.7116 58.84 67.9231 59.8971 67.9231 60.32C67.9231 60.7428 67.9231 60.9543 67.9231 60.9543C67.7116 60.9543 66.2308 61.5886 65.1731 63.4914C64.327 64.9714 62.8462 68.5657 62.6347 71.1028C62.6347 71.1028 62 74.9086 62.6347 77.2343C63.0577 79.56 65.3847 81.04 66.6539 81.04C67.9231 81.04 69.4039 80.8286 70.0385 80.4057C70.6731 79.9828 73.2116 79.3486 73.8462 79.3486C74.2693 79.3486 74.4808 79.3486 74.4808 79.3486C74.4808 79.3486 74.0577 79.56 73.8462 79.7714C73.8462 79.7714 71.0962 81.2514 70.6731 81.4628C70.25 81.6743 68.9808 82.9429 67.2885 83.3657C65.5962 83.7886 62.8462 82.9428 61.7885 81.8857C61.7885 81.8857 61.577 81.4628 61.3654 81.4628C61.1539 81.4628 61.3654 81.8857 61.3654 81.8857V86.5371C61.3654 86.5371 61.3654 93.9371 66.6539 97.1086C72.1539 100.28 76.3847 96.4743 77.4424 95.4171C78.9231 93.5143 79.3462 91.8229 80.1924 90.7657C80.6154 90.1314 81.4616 89.2857 82.3077 88.6514C82.3077 88.6514 82.9424 88.2286 83.1539 88.44C83.3654 88.6514 83.1539 88.8629 82.9424 89.0743C82.9424 89.0743 81.4616 91.1886 81.0385 91.8229C80.827 92.4571 79.7693 94.36 79.3462 95.4171C78.9231 96.4743 78.077 98.1657 76.3847 99.2229C74.6924 100.28 73 100.28 72.3654 100.28H71.7308C71.7308 100.28 71.7308 100.28 71.7308 100.491C72.3654 100.914 74.0577 101.76 77.4424 101.337C77.4424 101.337 81.6731 100.914 85.2693 97.7428C85.2693 97.7428 87.1731 96.2629 87.3847 96.0514C87.5962 95.84 87.8077 95.6286 88.0193 95.84C88.0193 95.84 88.0193 96.2629 88.0193 96.4743C88.0193 96.4743 86.5385 99.2229 84.2116 100.703C81.8847 102.183 80.827 102.606 78.077 103.029C78.077 103.029 74.9039 103.24 74.0577 103.24H72.7885C73 103.451 74.2693 104.509 74.6924 104.72C74.6924 104.72 77.8654 106.623 79.9808 107.257C82.3077 107.891 84.4231 107.68 84.4231 107.68C84.4231 107.68 84.8462 107.68 84.8462 107.257C84.8462 106.623 84.8462 104.086 85.6924 102.606C86.5385 100.914 89.7116 96.0514 91.827 94.1486C91.827 94.1486 92.0385 93.9371 91.827 93.7257C91.6154 93.5143 90.5577 92.2457 90.5577 90.5543C90.5577 88.8628 91.4039 88.2286 92.0385 88.0171C92.6731 87.8057 93.0962 87.5943 93.3077 88.6514C93.3077 89.7086 93.9424 93.7257 94.577 95.4171C95.2116 97.1086 96.0577 98.1657 98.5962 99.4343C98.5962 99.4343 100.289 100.28 103.039 100.28C105.789 100.28 106.635 99.6457 107.058 99.2229C107.481 98.8 107.058 97.9543 106.423 97.9543C105.789 97.9543 104.942 97.9543 103.885 98.3771C102.615 98.3771 100.5 98.3771 99.0193 97.7428C99.0193 97.7428 97.1154 96.8971 96.9039 94.5714C96.4808 92.2457 96.9039 90.5543 97.9616 88.8628C97.9616 88.8628 97.9616 88.44 98.3847 88.8628C98.8077 88.8628 101.769 90.3428 103.885 90.5543C105.789 90.7657 107.904 89.92 107.692 87.3828C107.692 86.5371 106.635 84.6343 104.731 83.3657C102.827 82.0971 101.981 81.8857 101.769 81.6743C101.769 81.6743 101.135 81.4629 101.769 81.2514C102.404 81.2514 105.154 80.1943 106.423 80.4057C107.692 80.4057 110.442 80.8286 111.712 79.7714C112.769 78.5028 112.769 76.3886 111.712 74.4857H111.077Z" fill="white"/>
<path fill-rule="evenodd" clip-rule="evenodd" d="M108.75 86.5371C108.75 86.5371 107.692 84.8457 107.058 83.3657C106.846 82.7314 106.635 82.0971 106.423 81.8857V81.6743C107.269 81.8857 110.019 82.7314 111.5 83.3657C113.404 84.4229 113.827 84.8457 113.615 85.6914C113.615 86.5371 113.192 87.1714 112.558 87.8057C111.923 88.2286 110.654 89.92 110.019 90.3429C110.019 90.3429 109.385 90.7657 108.75 90.3429C108.115 89.92 108.75 88.8629 108.962 88.6514C109.173 88.44 110.654 86.7486 110.865 86.7486C110.865 86.7486 111.288 86.3257 111.077 85.9029C111.077 85.48 110.442 85.2686 110.019 85.48C109.596 85.48 108.962 86.3257 108.75 86.5371C108.75 86.5371 108.75 86.5371 108.538 86.5371C108.538 86.3257 108.538 86.1143 108.538 86.1143L108.75 86.5371Z" fill="white"/>
<path fill-rule="evenodd" clip-rule="evenodd" d="M100.712 92.88C100.712 92.4571 100.288 91.1886 99.6539 90.9771C99.0193 90.7657 98.1731 90.9771 98.1731 91.6114C98.1731 92.2457 98.1731 94.1486 98.5962 95.2057C99.0193 96.2629 100.288 96.8971 101.135 96.8971C101.769 96.8971 103.038 96.8971 103.462 95.4171C103.462 95.4171 103.462 94.9943 103.462 94.5714C103.462 94.36 103.885 93.0914 104.519 93.0914C105.577 93.0914 106.635 93.0914 107.058 93.0914C107.481 93.0914 107.481 93.5143 107.481 93.7257C107.481 94.1486 107.692 94.1486 107.904 94.1486C108.115 94.1486 108.538 94.1486 108.327 93.5143C108.115 92.88 107.481 91.6114 105.365 91.6114C105.365 91.6114 103.885 91.6114 103.25 92.6686C102.404 93.7257 102.192 94.1486 101.769 94.1486C101.346 94.1486 100.712 93.9371 100.712 93.0914V92.88Z" fill="white"/>
<path fill-rule="evenodd" clip-rule="evenodd" d="M36.1923 78.08C36.1923 78.08 34.2884 79.7714 34.7115 80.8286C35.1346 81.8857 36.1923 82.3086 37.4615 82.0972C38.7307 81.6743 38.9423 81.04 38.7307 80.1943C38.5192 79.3486 38.3076 78.2914 38.0961 77.8686C38.0961 77.4457 37.25 77.0229 35.9807 77.8686L36.1923 78.08Z" fill="white"/>
<path fill-rule="evenodd" clip-rule="evenodd" d="M40.8461 78.08C40.2115 78.2914 38.9423 79.56 39.3653 81.04C39.7884 82.7314 41.0577 83.1543 41.9038 83.1543C42.75 83.1543 44.8653 82.7314 44.0192 80.1943C43.173 77.6571 41.4807 77.8686 40.8461 78.08Z" fill="white"/>
<path fill-rule="evenodd" clip-rule="evenodd" d="M45.2884 78.9257C45.2884 78.9257 46.1346 79.9829 45.9231 81.04C45.7115 82.0972 45.5 82.7314 46.3461 83.1543C46.9808 83.5772 48.6731 83.1543 49.0961 82.52C49.5192 81.6743 48.8846 79.9829 48.0384 79.3486C47.1923 78.7143 46.3461 78.5029 45.7115 78.2914C45.2884 78.2914 45.0769 78.2914 45.0769 78.2914C45.0769 78.2914 45.2884 78.7143 45.5 78.9257H45.2884Z" fill="white"/>
<path fill-rule="evenodd" clip-rule="evenodd" d="M38.5193 75.7543C38.7308 76.1771 39.1539 76.8114 40 77.0228H40.4231C40.8462 76.6 41.6924 75.9657 43.1731 76.1771C43.3847 76.1771 43.5962 76.1771 43.5962 75.7543C43.5962 74.6971 43.5962 72.16 43.8077 70.2571C44.2308 67.9314 45.077 65.1828 45.5 64.5486C45.5 64.1257 45.5 63.9143 45.2885 63.9143C44.4424 64.3371 43.1731 64.76 41.9039 63.7028C40.6347 62.6457 40.6347 61.1657 40.6347 60.32C40.6347 60.32 40.6347 60.1086 40.4231 60.32C40.2116 60.7428 39.7885 61.5886 40 62.6457C40 64.3371 40.4231 66.8743 40 69.2C39.577 71.3143 38.7308 73.8514 38.3077 75.12C38.3077 75.3314 38.3077 75.7543 38.3077 75.9657L38.5193 75.7543Z" fill="white"/>
<path fill-rule="evenodd" clip-rule="evenodd" d="M42.9616 57.5714C42.5385 58.6286 41.9039 61.3771 43.3847 62.0114C44.8654 62.8571 47.827 61.5886 49.5193 59.4743C51.2116 57.36 53.7501 54.8228 55.2308 51.6514C56.7116 48.48 57.5577 44.2514 56.077 42.9828C54.5962 41.7143 52.0577 44.04 51.2116 44.8857C50.3654 45.7314 47.827 48.6914 45.7116 52.2857C43.5962 55.6686 43.3847 56.7257 42.9616 57.5714Z" fill="white"/>
<path fill-rule="evenodd" clip-rule="evenodd" d="M58.1924 47.6343H57.9808C57.5577 48.9028 56.5 52.0743 55.4424 54.1886C54.3847 56.0914 52.9039 58.2057 52.0577 58.84V59.2628C52.4808 59.2628 53.327 59.2629 53.9616 59.8971C54.5962 60.32 55.0193 60.9543 55.4424 61.5886H55.8654C56.2885 60.5314 57.5577 57.5714 57.9808 55.0343C58.4039 52.4971 58.1924 49.3257 57.9808 47.8457L58.1924 47.6343Z" fill="white"/>
<path fill-rule="evenodd" clip-rule="evenodd" d="M49.9424 43.6171C51.0001 42.56 54.1731 39.6 56.9231 41.5029C60.0962 43.8286 59.8847 48.2686 59.8847 52.4971C59.8847 52.4971 60.0962 52.7086 60.3077 52.4971C60.9424 51.8629 62.4231 50.3829 63.6924 50.1714C65.3847 49.7486 66.4424 49.96 67.5001 48.0571C68.5578 46.1543 70.0385 43.8286 72.7885 43.8286C75.5385 43.8286 78.2885 45.0971 80.1924 47H80.6154C80.6154 45.52 80.827 41.2914 78.7116 38.3314C75.9616 34.7371 72.1539 31.9886 67.077 31.9886C67.077 31.9886 64.7501 31.9886 63.9039 32.2C63.0577 32.2 61.1539 32.6229 60.5193 30.72C59.8847 28.8171 60.7308 25.2229 65.1731 24.1657C69.6154 23.1086 74.4808 25.4343 75.7501 26.0686C77.0193 26.7029 83.577 30.72 85.9039 32.8343C88.2308 34.7371 93.7308 39.3886 95.2116 40.6571C96.6924 41.9257 99.4424 44.8857 105.365 45.7314C111.289 46.5771 114.673 43.8286 115.731 42.56C116.789 41.2914 117.846 38.12 116.365 33.68C115.308 30.0857 113.192 27.9714 112.135 26.9143H111.923C112.346 28.1829 113.615 30.9314 112.981 32.4114C112.346 34.5257 109.596 36.64 108.75 37.4857C107.904 38.3314 105.365 40.6571 105.365 40.6571C105.365 40.6571 104.519 41.7143 102.615 41.08C100.712 40.6571 95.6347 38.5429 92.8847 36.2171C90.3462 33.8914 84.0001 29.0286 81.2501 27.3371C78.5001 25.6457 71.7308 22.4743 67.9231 22.4743C64.1154 22.4743 61.1539 23.32 59.6731 26.0686C59.6731 26.0686 58.4039 28.3943 58.6154 31.1429C58.6154 31.1429 59.0385 32.8343 57.7693 33.4686C56.5001 34.1029 53.5385 36.0057 52.2693 38.12C51.2116 39.8114 50.1539 42.1371 49.5193 43.4057L49.9424 43.6171Z" fill="white"/>
<path fill-rule="evenodd" clip-rule="evenodd" d="M53.9615 81.4629C53.9615 81.4629 51.6346 85.6914 52.0576 90.1314C52.4807 94.5714 53.5384 95.2057 53.9615 97.5314C54.173 99.6457 53.9615 100.069 53.9615 100.069C53.9615 100.069 55.4423 99.2229 56.2884 99.2229C57.1346 99.2229 58.6153 99.8571 58.6153 99.8571C58.6153 99.8571 58.6153 96.4743 59.4615 95.4172C60.0961 94.36 61.5769 92.0343 60.3076 89.0743C59.4615 87.3829 59.2499 86.5371 59.0384 86.1143C59.0384 86.1143 58.8269 85.6914 58.6153 85.9029C58.1923 85.9029 57.1346 86.1143 55.6538 85.48C53.75 84.6343 53.7499 81.6743 53.7499 81.6743L53.9615 81.4629Z" fill="white"/>
<path fill-rule="evenodd" clip-rule="evenodd" d="M56.077 100.914C56.077 100.914 52.9039 101.126 52.0577 103.24C51.2116 105.143 52.6923 104.72 52.9039 104.509C53.1154 104.509 53.5385 104.297 54.1731 104.509C54.8077 104.931 55.4423 105.143 56.077 104.509C56.7116 103.874 57.3462 103.663 58.1923 104.509C59.0385 105.143 60.5193 105.143 60.9423 104.509C61.3654 104.086 59.6731 100.914 56.077 100.914Z" fill="white"/>
<path fill-rule="evenodd" clip-rule="evenodd" d="M50.7885 105.566C50.7885 105.566 48.8846 105.566 48.8846 108.103C48.8846 110.64 51.2116 110.64 51.4231 110.64C51.6346 110.64 53.1154 110.006 53.1154 107.891C53.1154 105.777 51.4231 105.354 50.577 105.566H50.7885Z" fill="white"/>
<path fill-rule="evenodd" clip-rule="evenodd" d="M56.5 106.2C56.5 106.2 54.5962 106.2 54.5962 108.526C54.5962 110.851 55.4423 111.486 56.5 111.486C57.5577 111.486 58.827 110.851 58.827 108.949C58.827 107.046 57.7693 106.411 56.5 106.411V106.2Z" fill="white"/>
<path fill-rule="evenodd" clip-rule="evenodd" d="M61.7885 105.354C61.7885 105.354 60.0962 105.354 59.8847 107.68C59.6731 110.006 61.3654 110.429 61.7885 110.429C62.2116 110.429 63.9039 110.006 63.9039 108.737C63.9039 107.257 63.9039 105.354 61.7885 105.354Z" fill="white"/>
</g>
<defs>
<clipPath id="clip0_2427_322">
<rect width="110" height="148" fill="white" transform="translate(29 10)"/>
</clipPath>
</defs>
</svg>
