<svg xmlns="http://www.w3.org/2000/svg" xmlns:xlink="http://www.w3.org/1999/xlink" id="Layer_1" x="0px" y="0px" viewBox="0 0 1262.8 304.8" style="enable-background:new 0 0 1262.8 304.8;" xml:space="preserve"><style type="text/css">	.st0{fill:#FE0525;}	.st1{fill:#FFFFFF;}</style><g>	<g>		<polygon class="st0" points="170.3,0 0,304.8 62.5,304.8 164.8,229.7 164.8,213.9 130.7,213.9 97.4,235.1 170.3,95.6 232.1,213.9    289.8,213.9   "></polygon>		<polygon class="st0" points="150.9,179.1 189.7,179.1 170.3,145.6   "></polygon>	</g>	<g>		<g>			<path class="st1" d="M347.1,82.2l-39,89.2H330l7.3-18.1h37.5l7.4,18.1H404l-39.2-89.2H347.1z M355.9,106.3h0.6l11.6,29.3h-23.7    L355.9,106.3z"></path>			<path class="st1" d="M465.9,125.1c3.4-1.5,6.2-3.6,8.4-6.4c2.9-3.7,4.3-8.2,4.3-13.4c0-7.1-2.5-12.7-7.5-16.8    c-5-4.1-12.1-6.2-21.4-6.2h-40.4v89.2h41.7c9.3,0,16.6-2.3,22-6.8c5.4-4.5,8-10.7,8-18.5c0-6-1.6-10.9-4.8-14.6    C473.6,128.5,470.1,126.4,465.9,125.1z M430.1,99.3h15.5c4.2,0,7.2,0.7,9.2,2.2c1.9,1.5,2.9,3.8,2.9,6.9c0,3.1-1,5.4-2.9,7    c-1.9,1.5-5,2.3-9.2,2.3h-15.5V99.3z M457.2,151.9c-2,1.6-5.1,2.4-9.2,2.4h-17.9v-19.6h17.9c4.1,0,7.1,0.8,9.2,2.3    c2,1.5,3,4,3,7.5C460.2,147.8,459.2,150.3,457.2,151.9z"></path>			<polygon class="st1" points="484.5,101.1 509.8,101.1 509.8,171.4 531.7,171.4 531.7,101.1 556.9,101.1 556.9,82.2 484.5,82.2        "></polygon>			<path class="st1" d="M638.9,102.5c-3.4-6.9-8.3-12.2-14.6-16c-6.3-3.8-13.8-5.7-22.4-5.7c-8.6,0-16,1.9-22.3,5.7    c-6.3,3.8-11.1,9.1-14.5,16c-3.4,6.9-5.1,14.9-5.1,24.2c0,9.2,1.7,17.2,5.1,24.2c3.4,6.9,8.3,12.3,14.5,16.1    c6.3,3.8,13.7,5.8,22.3,5.8c8.7,0,16.1-1.9,22.4-5.8c6.3-3.8,11.2-9.2,14.6-16.1c3.4-6.9,5.1-15,5.1-24.2    C644,117.5,642.3,109.4,638.9,102.5z M616.4,146.3c-3.2,4.7-8.1,7-14.5,7c-6.5,0-11.3-2.3-14.4-7c-3.1-4.7-4.7-11.2-4.7-19.5    c0-8.4,1.6-14.9,4.7-19.5c3.1-4.6,7.9-6.9,14.4-6.9c6.5,0,11.3,2.3,14.5,7c3.2,4.6,4.8,11.1,4.8,19.5    C621.3,135.1,619.6,141.6,616.4,146.3z"></path>			<polygon class="st1" points="730.8,82.2 705.3,82.2 687.3,109.5 669.3,82.2 643.9,82.2 674.9,126.4 643.2,171.4 668.5,171.4     687.3,143.3 706.1,171.4 731.7,171.4 699.7,126.4    "></polygon>			<path class="st1" d="M795.2,86.5c-6.3-3.8-13.8-5.7-22.4-5.7c-8.6,0-16,1.9-22.3,5.7c-6.3,3.8-11.1,9.1-14.5,16    c-3.4,6.9-5.1,14.9-5.1,24.2c0,9.2,1.7,17.2,5.1,24.2c3.4,6.9,8.3,12.3,14.5,16.1c6.3,3.8,13.7,5.8,22.3,5.8    c8.7,0,16.1-1.9,22.4-5.8c6.3-3.8,11.2-9.2,14.6-16.1c3.4-6.9,5.1-15,5.1-24.2c0-9.3-1.7-17.3-5.1-24.2    C806.3,95.7,801.5,90.3,795.2,86.5z M787.3,146.3c-3.2,4.7-8.1,7-14.5,7c-6.5,0-11.3-2.3-14.4-7c-3.1-4.7-4.7-11.2-4.7-19.5    c0-8.4,1.6-14.9,4.7-19.5c3.1-4.6,7.9-6.9,14.4-6.9c6.5,0,11.3,2.3,14.5,7c3.2,4.6,4.8,11.1,4.8,19.5    C792.1,135.1,790.5,141.6,787.3,146.3z"></path>			<path class="st1" d="M840,109.9c0,6.7-0.4,12.6-1.1,17.7c-0.7,5.1-1.9,9.4-3.4,13.1c-1.5,3.7-3.4,6.9-5.8,9.5    c-2.4,2.7-5.3,5.1-8.7,7.1l10.9,16.4c4.4-2.3,8.3-5.1,11.8-8.6c3.5-3.5,6.4-7.6,8.8-12.4c2.4-4.8,4.3-10.3,5.5-16.4    c1.3-6.2,1.9-13.1,1.9-20.7V101h23.1v70.4h21.6V82.2H840V109.9z"></path>			<path class="st1" d="M997.4,82.2h-64.7v23.6c0,11.5-0.8,21.2-2.5,29.1c-1.7,7.9-4.3,14.2-7.9,18.7h-8.6v39.8h18.7v-22.1h58.6    v22.1h18.7v-39.8h-12.2V82.2z M975.8,153.7h-32c2.9-4.8,5.1-10.9,6.6-18.4c1.5-7.5,2.2-16.4,2.2-26.9v-8.5h23.3V153.7z"></path>			<polygon class="st1" points="1040,134.6 1040,82.2 1019.8,82.2 1019.8,171.4 1035.8,171.4 1074.6,119 1074.6,171.4 1094.8,171.4     1094.8,82.2 1078.9,82.2    "></polygon>			<polygon class="st1" points="1165.5,116.6 1132,116.6 1132,82.2 1110.2,82.2 1110.2,171.4 1132,171.4 1132,135.7 1165.5,135.7     1165.5,171.4 1187.4,171.4 1187.4,82.2 1165.5,82.2    "></polygon>			<polygon class="st1" points="1202.7,82.2 1202.7,171.4 1224.3,171.4 1224.3,101 1262.8,101 1262.8,82.2    "></polygon>		</g>		<g>			<polygon class="st1" points="517.5,209.6 460.8,209.6 460.8,224.4 480.6,224.4 480.6,279.5 497.7,279.5 497.7,224.4 517.5,224.4        "></polygon>			<path class="st1" d="M538.5,258.3L528,229.1h-17.4l19.4,47.8l-0.8,2c-0.7,1.9-1.8,3.5-3.1,4.7c-1.3,1.2-2.9,2.1-4.9,2.8    c-2,0.7-4.5,1.3-7.4,1.9l3.9,13.7c3-0.5,5.8-1.2,8.4-1.9c2.6-0.8,4.9-1.9,7.1-3.4c2.2-1.5,4.2-3.6,6.1-6.1    c1.9-2.6,3.7-5.9,5.3-9.9l21.1-51.4h-16.3L538.5,258.3z"></path>			<path class="st1" d="M612.3,231.2c-3.1-2.1-6.7-3.1-10.7-3.1c-3.6,0-6.9,0.9-9.9,2.8c-2.3,1.5-4,3.3-5,5.4l-0.8-7.1h-15.9    c0.2,2.2,0.4,4.5,0.6,6.8c0.1,2.3,0.2,4.6,0.2,6.8v58h16.5v-27.6c1.1,1.9,2.6,3.4,4.7,4.7c2.9,1.7,6.1,2.6,9.7,2.6    c4.1,0,7.6-1,10.7-3.1c3.1-2.1,5.5-5.1,7.3-9.1s2.6-8.7,2.6-14.1c0-5.5-0.9-10.2-2.6-14.1C617.8,236.2,615.4,233.2,612.3,231.2z     M603.1,264.3c-1.7,2.1-4,3.1-6.8,3.1c-2.8,0-5-1-6.8-3.1c-1.7-2.1-2.6-5.4-2.6-10.1c0-4.6,0.9-8,2.6-10.1c1.7-2.1,4-3.1,6.8-3.1    c2.8,0,5.1,1,6.8,3.1c1.7,2.1,2.5,5.4,2.5,10.1C605.6,258.9,604.8,262.3,603.1,264.3z"></path>			<polygon class="st1" points="631.5,279.5 647.9,279.5 647.9,242.7 669.7,242.7 669.7,229.1 631.5,229.1    "></polygon>			<path class="st1" d="M711,231.4c-3.2-2.2-7.1-3.3-11.9-3.3c-4.8,0-9,1.1-12.6,3.3c-3.6,2.2-6.4,5.3-8.3,9.3c-2,4-3,8.5-3,13.6    c0,8.2,2.4,14.6,7.1,19.3c4.7,4.7,11.3,7,19.8,7c3.5,0,6.7-0.5,9.8-1.4c3.1-0.9,5.8-2.2,8.1-4l-4.3-11.5c-2,1.3-4.1,2.3-6.2,2.9    c-2.2,0.6-4.5,0.9-7,0.9c-3.8,0-6.8-1-8.8-3.1c-1.5-1.6-2.5-3.8-2.9-6.7h29.6v-3.8c0-5.1-0.8-9.6-2.4-13.4    C716.6,236.6,714.2,233.6,711,231.4z M699.3,239.6c2.4,0,4.3,0.9,5.6,2.7c1.2,1.6,1.8,3.9,2,7H691c0.3-2.7,1-4.8,2-6.4    C694.5,240.7,696.6,239.6,699.3,239.6z"></path>			<polygon class="st1" points="761.8,247.2 746.1,247.2 746.1,229.1 729.8,229.1 729.8,279.5 746.1,279.5 746.1,260.5 761.8,260.5     761.8,279.5 778,279.5 778,229.1 761.8,229.1    "></polygon>			<path class="st1" d="M823.1,231.4c-3.2-2.2-7.1-3.3-11.9-3.3c-4.8,0-9,1.1-12.6,3.3c-3.6,2.2-6.4,5.3-8.3,9.3c-2,4-3,8.5-3,13.6    c0,8.2,2.4,14.6,7.1,19.3c4.7,4.7,11.3,7,19.8,7c3.5,0,6.7-0.5,9.8-1.4c3.1-0.9,5.8-2.2,8.1-4l-4.3-11.5c-2,1.3-4.1,2.3-6.2,2.9    c-2.2,0.6-4.5,0.9-7,0.9c-3.8,0-6.8-1-8.8-3.1c-1.5-1.6-2.5-3.8-2.9-6.7h29.6v-3.8c0-5.1-0.8-9.6-2.4-13.4    C828.7,236.6,826.3,233.6,823.1,231.4z M811.4,239.6c2.4,0,4.3,0.9,5.6,2.7c1.2,1.6,1.8,3.9,2,7h-15.9c0.3-2.7,1-4.8,2-6.4    C806.5,240.7,808.7,239.6,811.4,239.6z"></path>			<path class="st1" d="M880.3,253.2c1.7-0.7,3.2-1.8,4.5-3.1c1.9-2.1,2.9-4.7,2.9-7.8c0-4-1.4-7.2-4.2-9.6    c-2.8-2.3-7.4-3.5-13.8-3.5h-27.9v50.3h28.8c6.1,0,10.8-1.3,14-3.8c3.2-2.5,4.9-6,4.9-10.5c0-3.5-1-6.4-3-8.6    C885.1,255,883,253.8,880.3,253.2z M856.9,239.2h10.4c1.8,0,3.2,0.4,4.2,1.1c1,0.7,1.5,1.9,1.5,3.6c0,1.6-0.5,2.8-1.5,3.6    c-1,0.8-2.4,1.2-4.2,1.2h-10.4V239.2z M873.2,268c-1.1,0.9-2.7,1.3-4.8,1.3h-11.5v-10.4h11.5c2.1,0,3.7,0.4,4.8,1.3    c1.1,0.9,1.6,2.1,1.6,3.9C874.8,265.8,874.2,267.1,873.2,268z"></path>			<path class="st1" d="M923.6,241.3c1.8,0,3.6,0.3,5.5,1c1.9,0.7,3.6,1.7,5,3l4.6-12c-1.9-1.7-4.4-3-7.5-4    c-3.1-0.9-6.2-1.4-9.4-1.4c-5.2,0-9.7,1-13.6,3.1c-3.9,2.1-6.9,5.1-9.1,9c-2.2,3.9-3.2,8.6-3.2,14.1c0,5.5,1.1,10.2,3.2,14.1    c2.2,3.9,5.2,7,9.1,9.1c3.9,2.1,8.4,3.2,13.6,3.2c3.2,0,6.3-0.5,9.4-1.4c3.1-1,5.6-2.3,7.5-3.9l-4.6-12c-1.5,1.3-3.2,2.2-5.1,2.9    c-1.9,0.7-3.7,1-5.5,1c-3.4,0-6-1.1-7.9-3.3c-1.9-2.2-2.8-5.4-2.8-9.7c0-4.2,0.9-7.4,2.8-9.6    C917.6,242.4,920.2,241.3,923.6,241.3z"></path>			<path class="st1" d="M985.8,254.5c-1-1.1-2-2.1-3.2-2.9l14.5-22.5h-17.4l-11.7,18h-4.8v-18h-16.4v50.3h16.4v-18.9h4.6    c1,0,1.8,0.1,2.6,0.4c0.7,0.3,1.4,0.7,2,1.3c0.6,0.6,1.2,1.5,1.7,2.6l7.2,14.6h17.5l-10.2-20.2    C987.9,257.5,986.9,255.9,985.8,254.5z"></path>			<polygon class="st1" points="1018,257 1018,229.1 1003.2,229.1 1003.2,279.5 1016.7,279.5 1036.4,251.7 1036.4,279.5     1051.2,279.5 1051.2,229.1 1037.7,229.1    "></polygon>			<polygon class="st1" points="1096.8,229.1 1077.1,257 1077.1,229.1 1062.3,229.1 1062.3,279.5 1075.7,279.5 1095.4,251.7     1095.4,279.5 1110.2,279.5 1110.2,229.1    "></polygon>			<path class="st1" d="M1076.6,222.9c2.6,1.3,5.8,1.9,9.5,1.9c5,0,9.1-1.3,12.2-4c3.1-2.6,5.1-6.1,6-10.5l-7.4-2.6    c-0.8,2.6-2.1,4.7-3.8,6c-1.7,1.4-4,2.1-6.9,2.1c-2.8,0-5.1-0.6-6.8-1.9c-1.7-1.3-3.1-3.4-4.1-6.3l-7.7,2.7    c0.4,2.7,1.4,5.2,2.9,7.3C1072,219.9,1074,221.7,1076.6,222.9z"></path>		</g>	</g></g></svg>