<svg width="43" height="62" viewBox="0 0 43 62" fill="none" xmlns="http://www.w3.org/2000/svg">
<g clip-path="url(#clip0_2427_242)">
<path opacity="0.2" d="M35 58.4C35 60.4 28.8 62 21.2 62C13.6 62 7.40002 60.4 7.40002 58.4C7.40002 56.4 13.6 54.8 21.2 54.8C28.8 54.7 35 56.4 35 58.4Z" fill="#05141F"/>
<path d="M21.4 0C9.6 0 0 9.6 0 21.4C0 34 21.4 58.5 21.4 58.5C21.4 58.5 42.8 35 42.8 21.4C42.8 9.6 33.2 0 21.4 0ZM21.4 33.7C14.1 33.7 8.2 27.8 8.2 20.5C8.2 13.2 14.1 7.3 21.4 7.3C28.7 7.3 34.6 13.2 34.6 20.5C34.6 27.8 28.7 33.7 21.4 33.7Z" fill="#05141F"/>
<path d="M21.4 0C9.6 0 0 9.6 0 21.4C0 34 21.4 58.5 21.4 58.5C21.4 58.5 42.8 35 42.8 21.4C42.8 9.6 33.2 0 21.4 0ZM21.4 33.7C14.1 33.7 8.2 27.8 8.2 20.5C8.2 13.2 14.1 7.3 21.4 7.3C28.7 7.3 34.6 13.2 34.6 20.5C34.6 27.8 28.7 33.7 21.4 33.7Z" fill="black"/>
<path d="M21.7 38.4C30.9232 38.4 38.4 30.9232 38.4 21.7C38.4 12.4768 30.9232 5 21.7 5C12.4768 5 5 12.4768 5 21.7C5 30.9232 12.4768 38.4 21.7 38.4Z" fill="white"/>
<g clip-path="url(#clip1_2427_242)">
<path fill-rule="evenodd" clip-rule="evenodd" d="M21.5 37C21.7423 37 22.1865 37 23.7212 36.12C24.6096 35.64 25.3365 35.16 25.9827 34.68C26.6288 34.2 27.2346 33.72 27.9212 33.16C28.5673 32.64 29.1327 32.04 29.5769 31.44C30.0615 30.76 30.4654 30.08 30.7077 29.48C30.9096 28.92 31.1115 28.36 31.2327 27.8C31.3942 27.12 31.5154 26.44 31.5558 25.84C31.6769 24.72 31.7577 22.48 31.7577 22.48C31.7577 22.48 31.8788 18.88 31.8788 18.04C31.8788 17.24 31.8788 14.76 31.8788 14.76C31.8788 14.76 31.8788 12.4 31.7577 11.52C31.7173 11.2 31.5962 10.96 31.4346 10.76C31.1923 10.44 30.8692 10.28 30.7481 10.24C30.6269 10.2 30.1827 10.04 29.5365 9.88C29.0923 9.76 28.5673 9.68 27.9615 9.56C24.8115 9 21.5 9 21.5 9C21.5 9 18.1885 9 14.9577 9.56C14.3519 9.68 13.8269 9.8 13.3827 9.88C12.7365 10.04 12.2923 10.16 12.1712 10.24C12.05 10.28 11.7269 10.44 11.4846 10.76C11.3231 10.96 11.2019 11.2 11.1615 11.52C11 12.4 11 14.76 11 14.76C11 14.76 11 17.24 11 18.04C11 18.88 11.1212 22.48 11.1212 22.48C11.1212 22.48 11.2019 24.72 11.3231 25.84C11.4038 26.44 11.4846 27.12 11.6462 27.8C11.7673 28.36 11.9692 28.92 12.1712 29.48C12.4135 30.12 12.8173 30.8 13.3019 31.44C13.7865 32.04 14.3115 32.64 14.9577 33.16C15.6442 33.72 16.25 34.2 16.8962 34.68C17.5423 35.16 18.2692 35.6 19.1577 36.12C20.6923 37 21.1365 37 21.3788 37H21.4192H21.5Z" fill="black"/>
<path fill-rule="evenodd" clip-rule="evenodd" d="M31.7577 11.52C31.7577 11.24 31.5962 11 31.475 10.84C31.1923 10.48 30.8693 10.36 30.8289 10.36C30.6673 10.28 30.2231 10.16 29.6173 10C29.1731 9.88 28.6481 9.8 28.0423 9.68C26.9923 9.48 25.9019 9.36 24.9327 9.28C23.1558 9.12 21.7827 9.12 21.5404 9.12H21.4596C21.2577 9.12 19.8443 9.12 18.0673 9.28C17.0981 9.36 16.0077 9.48 14.9577 9.68C14.3519 9.8 13.8269 9.92 13.3827 10C12.7769 10.16 12.3327 10.28 12.1712 10.36C12.1712 10.36 11.9693 10.44 11.7269 10.64C11.525 10.84 11.2827 11.12 11.2423 11.56C11.2019 11.84 11.1616 12.32 11.1616 12.8C11.1616 13.76 11.1616 14.8 11.1616 14.84V14.92C11.1616 15.36 11.1616 17.4 11.1616 18.12C11.1616 18.84 11.2827 21.92 11.2827 22.48V22.56C11.2827 22.68 11.3635 24.84 11.4846 25.92C11.5654 26.6 11.6866 27.24 11.8077 27.84C11.9693 28.44 12.1308 29 12.3327 29.52C12.575 30.16 12.9789 30.84 13.4635 31.44C13.9481 32.04 14.5135 32.64 15.1193 33.16C15.8058 33.72 16.4116 34.2 17.0577 34.68C17.7039 35.16 18.3904 35.6 19.2789 36.08C20.0462 36.52 20.5308 36.72 20.8539 36.84C21.1769 36.92 21.2981 36.92 21.4193 36.92H21.5808C21.7827 36.92 22.1866 36.92 23.7212 36.08C24.6096 35.6 25.2962 35.16 25.9423 34.68C26.5885 34.2 27.1943 33.72 27.8808 33.16C28.4866 32.68 29.0519 32.08 29.5366 31.44C30.0212 30.8 30.425 30.16 30.6673 29.52C30.8693 29 31.0308 28.44 31.1923 27.84C31.3539 27.24 31.4346 26.6 31.5154 25.92C31.6366 24.88 31.7173 22.8 31.7173 22.56V22.48C31.7173 21.96 31.8385 18.84 31.8385 18.12V16.88V14.84C31.8385 14.84 31.8385 13.76 31.8385 12.8C31.8385 12.32 31.7981 11.88 31.7577 11.56V11.52Z" fill="#727476"/>
<path fill-rule="evenodd" clip-rule="evenodd" d="M31.5962 11.56C31.5962 11.28 31.4346 11.08 31.3135 10.92C31.0712 10.6 30.7481 10.48 30.7481 10.48C30.5865 10.4 30.1827 10.28 29.5365 10.16C29.0923 10.04 28.5673 9.96 27.9615 9.84C26.9115 9.64 25.8212 9.52 24.8923 9.44C23.1154 9.28 21.7423 9.28 21.5 9.28H21.4192C21.2173 9.28 19.8038 9.28 18.0269 9.44C17.0577 9.52 16.0077 9.64 14.9577 9.84C14.3519 9.96 13.8269 10.04 13.3827 10.16C12.7769 10.32 12.3327 10.44 12.1712 10.48C12.1308 10.48 11.8077 10.64 11.6058 10.92C11.4846 11.08 11.3635 11.28 11.3231 11.56C11.2827 11.84 11.2423 12.32 11.2423 12.76C11.2423 13.72 11.2423 14.76 11.2423 14.76C11.2423 14.96 11.2423 17.24 11.2423 18.04C11.2423 18.8 11.3635 21.88 11.3635 22.4V22.48C11.3635 22.6 11.4442 24.76 11.5654 25.84C11.6462 26.52 11.7673 27.16 11.8885 27.76C12.0096 28.36 12.2115 28.92 12.4135 29.4C12.6558 30.04 13.0596 30.68 13.5442 31.32C14.0288 31.92 14.5538 32.52 15.1596 33C15.8462 33.56 16.4519 34.04 17.0981 34.52C17.7442 35 18.4308 35.44 19.3192 35.92C20.0865 36.36 20.5308 36.56 20.8538 36.64C21.1365 36.72 21.2981 36.72 21.3788 36.72H21.5404C21.6212 36.72 21.7423 36.72 22.0654 36.64C22.3885 36.52 22.8731 36.32 23.6 35.92C24.4885 35.44 25.175 35 25.8212 34.52C26.4673 34.04 27.0731 33.56 27.7596 33C28.3654 32.52 28.9308 31.92 29.375 31.32C29.8192 30.72 30.2231 30.04 30.5058 29.4C30.7077 28.92 30.8692 28.36 31.0308 27.76C31.1519 27.16 31.2731 26.52 31.3538 25.84C31.3538 25.48 31.4346 25 31.475 24.48C31.5154 23.52 31.5558 22.56 31.5558 22.48V22.36C31.5558 21.68 31.6769 18.76 31.6769 18.04C31.6769 17.64 31.6769 16.92 31.6769 16.2V14.76C31.6769 14.76 31.6769 13.68 31.6769 12.76C31.6769 12.28 31.6365 11.84 31.5962 11.56Z" fill="white"/>
<path fill-rule="evenodd" clip-rule="evenodd" d="M21.4192 36.6C21.2577 36.6 20.8942 36.6 19.4404 35.8C17.7038 34.84 16.6538 34 15.3212 32.92C14.15 31.96 13.1404 30.64 12.6154 29.36C12.2115 28.36 11.9288 27.16 11.7673 25.84C11.6462 24.76 11.5654 22.52 11.5654 22.52C11.5654 22.36 11.4442 18.88 11.4038 18.08C11.4038 17.28 11.4038 14.84 11.3635 14.8C11.3635 14.8 11.3635 12.44 11.4846 11.6C11.5654 10.88 12.2519 10.64 12.2519 10.64C12.5346 10.52 13.5442 10.24 14.9981 9.96C17.9865 9.44 21.0962 9.4 21.4192 9.4H21.5C21.8635 9.4 24.9327 9.4 27.9212 9.96C29.375 10.24 30.3846 10.52 30.6673 10.64C30.6673 10.64 31.3538 10.92 31.4346 11.6C31.5558 12.44 31.5558 14.8 31.5558 14.8C31.5558 15.2 31.5558 17.32 31.5558 18.08C31.5558 18.84 31.4346 22.12 31.4346 22.52C31.4346 22.6 31.3538 24.8 31.2327 25.88C31.0712 27.24 30.7885 28.44 30.3846 29.4C29.8596 30.68 28.85 32 27.6788 32.96C26.3058 34.08 25.2962 34.88 23.5596 35.84C22.1058 36.64 21.7019 36.64 21.5404 36.64H21.3788L21.4192 36.6Z" fill="black"/>
<path fill-rule="evenodd" clip-rule="evenodd" d="M22.7116 27.8C22.7116 27.8 22.3077 28.12 21.7827 27.8C21.7827 27.8 20.0866 27.88 19.1577 27C19.1577 27 18.7539 26.68 18.8346 26.56C18.875 26.48 19.077 26.56 19.077 26.56C19.077 26.56 18.9558 26.36 18.8346 26.32C18.7135 26.28 18.5923 26 18.5923 26C18.5923 26 17.4616 25.76 17.2596 24.92C17.2596 24.92 16.8558 25.36 16.8558 26.12C16.8558 26.12 17.1385 26.4 17.2596 26.56C17.3808 26.72 17.502 26.88 17.5827 26.92C17.6635 26.92 17.9866 27.12 17.9462 27.8C17.9058 28.48 17.0173 28.44 16.8962 28.2C16.8962 28.2 16.6943 28.52 16.25 28.48C15.8058 28.48 15.7654 28.04 15.7654 28.04C15.7654 28.04 15.402 28.6 14.877 28.16C14.3116 27.72 14.7154 26.96 15.0385 26.88C15.0385 26.88 15.0789 26.4 15.5231 26.12C15.5231 26.12 15.5231 25.84 15.3616 25.04C15.2 24.24 15.0385 23.6 15.6846 22.12L15.8462 22.2C15.8462 22.2 15.7654 21 15.8866 20.12C16.0077 19.24 16.1693 19.08 16.1693 19.08C16.1693 19.08 15.7654 18.44 15.3212 18.56C15.3212 18.56 14.6346 19 14.5539 19.08C14.5539 19.08 14.3116 19.76 14.2308 20.28C14.15 20.72 14.15 21.16 14.1904 21.44C14.1904 21.44 14.1904 21.56 14.4327 21.64C14.5943 21.68 15.0385 22 15.1193 22.36C15.2 22.72 15.0385 23.04 14.675 23.08C14.4327 23.08 14.2308 23 14.15 22.92C14.15 22.92 13.8673 23.12 13.5039 23.12C13.1404 23.12 12.9789 22.8 12.9789 22.8C12.9789 22.8 12.3327 23.2 12.0904 22.72C11.8077 22.28 12.0904 21.76 12.575 21.52C12.575 21.52 12.8981 21.2 13.0596 20.12C13.0596 20.12 13.1404 19.64 13.1 19.2C13.1 18.76 12.9789 18.44 13.3827 18.04L13.5039 18.2C13.5039 18.2 13.9481 16.68 14.877 15.76C14.877 15.76 14.9577 14.16 16.6539 13.32C16.6539 13.32 16.4923 12.16 17.3 11.64C18.1077 11.12 19.5616 11.32 20.7731 12C21.9846 12.64 23.3577 14 24.327 14.52C25.2558 15.04 25.5385 14.88 25.7404 14.76C25.8212 14.68 26.952 13.64 27.0327 13.44C27.1135 13.28 27.0327 12.88 26.8308 12.28C26.6289 11.68 27.1943 12.28 27.275 12.36C27.3558 12.44 28.2443 13.36 28.002 14.68C27.8 15.92 26.0231 16.12 25.2558 15.88C24.2866 15.6 23.5193 14.88 23.2366 14.64C22.9539 14.4 21.2981 12.96 19.9654 12.24C18.6327 11.56 17.5827 11.8 17.3 12.24C17.0577 12.64 17.1385 13.2 17.4616 13.16C17.7846 13.16 19.4 12.84 20.3693 14C21.3385 15.16 20.975 16.2 20.975 16.2C20.975 16.2 20.9346 16.44 21.1366 16.32C21.3385 16.2 21.9039 16.08 22.3885 16.4C22.8731 16.72 22.752 16.84 22.6712 16.84C22.4693 16.92 21.3789 16.76 21.2173 16.88C21.0154 17 21.2577 17.08 20.8135 17.36C20.3693 17.68 20.2885 18.32 20.6116 18.64C20.8943 18.92 21.0962 19.12 22.1462 19C23.1962 18.88 23.9635 18.84 24.3673 19.28C24.852 19.8 24.5693 20.24 24.5693 20.24C24.5693 20.24 25.8212 20 26.6289 20.68C27.3962 21.32 27.2346 22.28 26.6289 22.56C26.6289 22.56 27.4366 22.84 27.5173 23.16C27.6385 23.48 27.3962 23.8 27.0327 24.16C26.6693 24.52 26.5077 24.56 26.3866 24.6C26.3866 24.6 26.427 25.08 26.225 25.12C26.0231 25.16 25.9423 24.92 25.902 24.92C25.8616 24.92 25.6596 24.8 25.4981 25.08C25.377 25.32 25.3366 25.56 25.4981 25.52C25.6193 25.52 26.2654 25.4 26.0635 25.92C25.8616 26.44 25.7404 26.68 25.902 27.04C26.0635 27.44 26.9923 28.24 27.4366 28.48C27.8808 28.68 28.2443 29 28.4462 28.96C28.6481 28.88 29.0116 28.6 29.4154 29.08C29.8193 29.56 29.8596 30.2 29.577 30.4C29.2943 30.64 29.0116 30.32 28.9712 30.2C28.9712 30.2 28.3654 30.72 27.5981 30.32C27.5981 30.32 26.8308 30.64 26.3058 30.2C25.8212 29.8 25.8616 29.32 25.8616 29.32C25.8616 29.32 25.2558 29.24 25.2558 28.6C25.2558 28.6 25.175 28.48 24.9327 28.36C24.6904 28.24 24.0846 27.96 24.0039 27.76C24.0039 27.76 23.6404 27.96 23.3173 27.68C23.3173 27.68 22.9943 27.88 22.7923 27.68L22.7116 27.8Z" fill="black"/>
<path fill-rule="evenodd" clip-rule="evenodd" d="M28.325 29.32C28.325 29.32 28.4461 29.32 28.6077 29.2C28.7288 29.08 28.8904 29.04 29.0923 29.2C29.2942 29.36 29.4961 29.64 29.4961 29.96C29.4961 30.2 29.2135 30.2 29.1327 30.04C29.1327 29.96 29.0115 29.92 28.9711 29.92C28.85 29.92 28.7288 30.16 28.4461 30.24C28.2442 30.28 28.1231 30.32 27.8 30.24C27.8 30.16 27.8404 30.04 27.8 29.84C27.7192 29.6 27.5981 29.36 27.7192 29.28C27.8404 29.2 28.0019 29.2 28.1635 29.36C28.2846 29.44 28.3654 29.44 28.3654 29.44L28.325 29.32Z" fill="white"/>
<path fill-rule="evenodd" clip-rule="evenodd" d="M26.8308 30.24C26.8308 30.24 26.3462 30.16 26.1443 29.72C25.9423 29.28 26.225 28.92 26.6693 29C27.1539 29.08 27.3962 29.4 27.4769 29.72C27.5577 30.04 27.3962 30.36 26.8712 30.24H26.8308Z" fill="white"/>
<path fill-rule="evenodd" clip-rule="evenodd" d="M25.6596 28.24C25.6596 28.24 25.2558 28.76 25.7404 29.16C25.7404 29.16 25.8212 29.24 25.9423 29.16C26.0635 29.08 26.3058 28.8 26.6289 28.8C26.952 28.8 27.1539 28.96 27.1943 29C27.1943 29 27.2346 29 27.3154 29C27.3558 29 27.5981 28.88 27.7193 28.88H27.8C27.8 28.88 27.8 28.88 27.7193 28.84C27.6385 28.8 27.1539 28.6 26.9116 28.36C26.6693 28.12 26.4673 28.04 26.1846 28.04C25.902 28.04 25.7404 28.28 25.7404 28.28L25.6596 28.24Z" fill="white"/>
<path fill-rule="evenodd" clip-rule="evenodd" d="M24.3673 26.84C24.3673 26.84 24.0442 27.32 24.1654 27.56C24.2865 27.8 24.5288 27.88 24.65 27.92C24.7711 27.96 25.0538 28.12 25.1346 28.24C25.1346 28.24 25.1346 28.28 25.2154 28.24C25.2154 28.2 25.6192 27.76 25.9423 27.64C25.9423 27.64 26.0634 27.64 25.9423 27.56C25.8211 27.52 25.6192 27.32 25.5788 27.12C25.5384 26.92 25.6596 26.64 25.4981 26.52C25.3365 26.4 24.7308 26.32 24.3673 26.88V26.84Z" fill="white"/>
<path fill-rule="evenodd" clip-rule="evenodd" d="M24.1654 26.52C24.1654 26.52 24.0038 26.76 23.9634 27C23.9634 27.2 23.9634 27.52 23.8019 27.6C23.6404 27.68 23.3577 27.52 23.3577 27.36C23.3577 27.2 23.3577 26.84 23.3981 26.6C23.4788 26.36 23.5596 26.28 23.8019 26.28C24.0442 26.28 24.0442 26.32 24.0846 26.36C24.125 26.36 24.2461 26.44 24.1654 26.48V26.52Z" fill="white"/>
<path fill-rule="evenodd" clip-rule="evenodd" d="M22.7923 26.56C22.7923 26.76 22.7115 27.12 22.7115 27.36C22.7115 27.6 22.9942 27.56 23.075 27.48C23.075 27.44 23.075 27.4 23.075 27.24C23.075 27.08 23.075 26.84 23.1558 26.6C23.1962 26.4 23.3577 26.16 23.3577 26.12C23.3981 26.08 23.3981 25.92 23.3173 25.84C23.1962 25.76 23.075 25.84 23.0346 25.84C22.9942 25.92 22.8327 26.16 22.7923 26.48V26.56Z" fill="white"/>
<path fill-rule="evenodd" clip-rule="evenodd" d="M21.9442 27.28C21.9442 27.28 21.9442 27.68 22.2673 27.68C22.5904 27.68 22.5904 27.44 22.55 27.24C22.5096 27.04 22.4288 26.56 22.55 26.24C22.6711 25.92 22.8731 25.68 22.9538 25.64C23.0346 25.56 23.075 25.48 22.9942 25.44C22.9134 25.4 22.8327 25.44 22.7519 25.44C22.6711 25.44 22.2673 25.88 22.1461 26.28C22.025 26.68 21.9846 26.92 21.9442 27.28Z" fill="white"/>
<path fill-rule="evenodd" clip-rule="evenodd" d="M25.175 22.2C25.0942 22.2 24.8519 22.28 24.7712 22.32C24.6904 22.36 24.5289 22.44 24.4481 22.32C24.3673 22.24 24.1654 22 24.1654 21.92C24.1654 21.92 24.0846 21.76 24.1654 21.68C24.2462 21.64 24.3673 21.68 24.4481 21.68C24.4481 21.68 24.65 21.8 24.7308 21.88C24.8116 21.96 24.9327 22.04 25.0135 22.04H25.1346C25.1346 22.04 25.2558 22.04 25.2962 22.04C25.3366 22.04 25.2962 22.12 25.2558 22.12L25.175 22.2ZM23.2769 20.32C23.1962 20.32 22.9539 20.24 22.7116 20.32C22.4692 20.44 22.5904 20.64 22.5904 20.64C22.7116 20.8 22.7519 20.88 22.7519 20.88C22.7519 20.96 22.7519 21.2 22.55 21.2C22.3481 21.2 22.2269 21 22.1866 20.8C22.1462 20.6 22.1866 20.56 22.1866 20.44C22.1866 20.32 22.2269 20.16 22.55 20.08C22.9135 20 23.1558 20.08 23.2769 20.08C23.3981 20.08 23.3981 20.24 23.3173 20.24L23.2769 20.32ZM21.7019 22.24C21.4596 22.4 21.1366 22.76 20.975 23C20.975 23 20.7731 23.32 20.7327 23.4C20.7327 23.44 20.5308 23.8 20.45 23.88C20.3692 23.96 20.2077 24.36 20.0058 24.56C19.8846 24.68 19.5616 24.96 19.1173 25.08C19.1173 25.08 18.6731 25.2 18.3096 25.08C17.9462 24.92 17.5827 24.56 17.7039 23.92C17.825 23.28 18.3096 23.08 18.5116 23.04C18.7135 23 19.5212 22.88 19.6827 23.4C19.8039 23.8 19.4808 24 19.3596 24C19.2385 24 19.1981 23.96 19.1981 23.84C19.1981 23.72 19.1577 23.6 19.0769 23.56C18.9962 23.52 18.7539 23.44 18.5519 23.56C18.35 23.68 18.2289 23.96 18.35 24.24C18.4712 24.48 18.6327 24.68 19.0769 24.68C19.5212 24.68 19.9654 24.32 20.0866 24.08C20.2077 23.84 20.5712 23.2 20.7327 23.04C20.8942 22.88 21.2173 22.44 21.5 22.28C21.7423 22.16 21.8635 22.16 21.8635 22.2C21.8635 22.2 21.8635 22.24 21.7019 22.36V22.24ZM26.6693 21.2C26.4673 20.88 26.0635 20.44 25.3769 20.4C25.2154 20.4 24.8519 20.4 24.5692 20.4C24.5692 20.4 24.1654 20.52 23.9635 20.28C23.7616 20.04 23.7212 19.76 23.4385 19.64C23.4385 19.64 23.3577 19.64 23.2769 19.6C23.2366 19.6 23.1962 19.52 23.2769 19.52C23.3577 19.52 23.5596 19.52 23.7212 19.64C23.8827 19.76 24.0039 20 24.0442 20.04C24.0442 20.12 24.1654 20.2 24.2866 20.16C24.4077 20.12 24.4077 20 24.3673 19.8C24.2866 19.6 24.1654 19.2 23.5596 19.08C23.5596 19.08 23.3577 19.08 23.4789 19.12L23.5596 19.2C23.5596 19.2 23.6 19.2 23.5596 19.24C23.5596 19.24 23.4789 19.24 23.3981 19.24C23.2769 19.2 22.9539 19.16 22.5904 19.16C22.2269 19.16 21.9442 19.2 21.8231 19.24C21.6616 19.24 21.2577 19.36 20.8135 19.16C20.8135 19.16 20.0866 18.84 20.0866 18.36C20.0866 17.88 20.2885 17.6 20.4096 17.48C20.5308 17.36 20.6519 17.28 20.6923 17.28C20.6923 17.28 20.7327 17.28 20.7327 17.2C20.7327 17.16 20.6923 17.2 20.6519 17.2C20.6519 17.2 20.0058 17.32 19.7635 17.68C19.7635 17.68 19.5212 18.04 19.5212 18.56C19.5212 19.08 19.8846 19.44 20.3289 19.56C20.7731 19.68 21.2577 19.76 21.6616 19.72C21.9442 19.72 22.4693 19.64 22.7519 19.68C22.7519 19.68 23.0346 19.68 23.075 19.8C23.075 19.8 23.075 19.84 23.075 19.88C23.075 19.88 22.7923 19.88 22.6712 19.88C22.55 19.88 21.9039 19.96 21.7423 20C21.5808 20 21.0962 20.04 20.6116 20C20.1269 20 19.5212 19.64 19.2789 19.4C19.0366 19.16 18.9558 18.92 18.9558 18.52C18.9558 18.52 18.9558 18.16 19.1577 17.84C19.3192 17.56 19.8846 17.04 20.7731 16.84C20.7731 16.84 21.3385 16.68 22.2673 16.76C22.2673 16.76 22.3885 16.76 22.2673 16.68C22.2673 16.68 21.9442 16.32 21.4596 16.32C21.4596 16.32 21.2173 16.32 21.0154 16.44C20.8135 16.56 20.6519 16.52 20.5308 16.4C20.45 16.24 20.0058 15.76 19.1981 15.84C18.3904 15.96 18.2289 16.52 18.1885 16.64C18.1481 16.76 18.0673 17.28 17.7442 17.28C17.4212 17.28 17.3404 17.12 17.3 17.12C17.3 17.12 17.2192 17.08 17.2192 17.12C17.2192 17.16 16.775 17.76 16.6135 18.12C16.4519 18.48 16.25 19 16.1289 19.56C16.0077 20.08 15.9269 20.6 15.9269 21.04C15.9269 21.48 15.9269 22.16 16.0077 22.36C16.0481 22.6 16.1289 22.88 16.3712 22.88C16.6135 22.88 16.7346 22.76 16.7346 22.56C16.7346 22.36 16.775 21.64 16.8962 21.2C16.9769 20.76 17.2596 19.96 17.3404 19.64C17.4616 19.36 17.9058 18.4 18.0269 18.2C18.1481 18 18.5923 17.28 18.8346 17.12C19.0769 16.96 19.2385 16.96 19.3596 17C19.4808 17.04 19.3596 17.08 19.3596 17.12C19.3596 17.16 18.6731 17.36 18.5519 17.8C18.3904 18.24 18.4308 18.44 18.4308 18.52C18.4308 18.6 18.4308 18.64 18.4308 18.64C18.3904 18.64 18.1077 18.76 17.9058 19.12C17.7442 19.4 17.4616 20.08 17.4212 20.56C17.4212 20.56 17.3 21.28 17.4212 21.72C17.5019 22.16 17.9462 22.44 18.1885 22.44C18.4308 22.44 18.7135 22.4 18.8346 22.32C18.9558 22.24 19.4404 22.12 19.5616 22.12C19.6423 22.12 19.6827 22.12 19.6827 22.12C19.6827 22.12 19.6019 22.16 19.5616 22.2C19.5616 22.2 19.0366 22.48 18.9558 22.52C18.875 22.56 18.6327 22.8 18.3096 22.88C17.9866 22.96 17.4616 22.8 17.2596 22.6C17.2596 22.6 17.2192 22.52 17.1789 22.52C17.1385 22.52 17.1789 22.6 17.1789 22.6V23.48C17.1789 23.48 17.1789 24.88 18.1885 25.48C19.2385 26.08 20.0462 25.36 20.2481 25.16C20.5308 24.8 20.6116 24.48 20.7731 24.28C20.8539 24.16 21.0154 24 21.1769 23.88C21.1769 23.88 21.2981 23.8 21.3385 23.84C21.3789 23.88 21.3385 23.92 21.2981 23.96C21.2981 23.96 21.0154 24.36 20.9346 24.48C20.8942 24.6 20.6923 24.96 20.6116 25.16C20.5308 25.36 20.3692 25.68 20.0462 25.88C19.7231 26.08 19.4 26.08 19.2789 26.08H19.1577C19.1577 26.08 19.1577 26.08 19.1577 26.12C19.2789 26.2 19.6019 26.36 20.2481 26.28C20.2481 26.28 21.0558 26.2 21.7423 25.6C21.7423 25.6 22.1058 25.32 22.1462 25.28C22.1866 25.24 22.2269 25.2 22.2673 25.24C22.2673 25.24 22.2673 25.32 22.2673 25.36C22.2673 25.36 21.9846 25.88 21.5404 26.16C21.0962 26.44 20.8942 26.52 20.3692 26.6C20.3692 26.6 19.7635 26.64 19.6019 26.64H19.3596C19.4 26.68 19.6423 26.88 19.7231 26.92C19.7231 26.92 20.3289 27.28 20.7327 27.4C21.1769 27.52 21.5808 27.48 21.5808 27.48C21.5808 27.48 21.6616 27.48 21.6616 27.4C21.6616 27.28 21.6616 26.8 21.8231 26.52C21.9846 26.2 22.5904 25.28 22.9943 24.92C22.9943 24.92 23.0346 24.88 22.9943 24.84C22.9539 24.8 22.7519 24.56 22.7519 24.24C22.7519 23.92 22.9135 23.8 23.0346 23.76C23.1558 23.72 23.2366 23.68 23.2769 23.88C23.2769 24.08 23.3981 24.84 23.5192 25.16C23.6404 25.48 23.8019 25.68 24.2866 25.92C24.2866 25.92 24.6096 26.08 25.1346 26.08C25.6596 26.08 25.8212 25.96 25.9019 25.88C25.9827 25.8 25.9019 25.64 25.7808 25.64C25.6596 25.64 25.4981 25.64 25.2962 25.72C25.0539 25.72 24.65 25.72 24.3673 25.6C24.3673 25.6 24.0039 25.44 23.9635 25C23.8827 24.56 23.9635 24.24 24.1654 23.92C24.1654 23.92 24.1654 23.84 24.2462 23.92C24.3269 23.92 24.8923 24.2 25.2962 24.24C25.6596 24.28 26.0635 24.12 26.0231 23.64C26.0231 23.48 25.8212 23.12 25.4577 22.88C25.0942 22.64 24.9327 22.6 24.8923 22.56C24.8923 22.56 24.7712 22.52 24.8923 22.48C25.0135 22.48 25.5385 22.28 25.7808 22.32C26.0231 22.32 26.5481 22.4 26.7904 22.2C26.9923 21.96 26.9923 21.56 26.7904 21.2H26.6693Z" fill="white"/>
<path fill-rule="evenodd" clip-rule="evenodd" d="M26.225 23.48C26.225 23.48 26.0231 23.16 25.9019 22.88C25.8615 22.76 25.8211 22.64 25.7808 22.6V22.56C25.9423 22.6 26.4673 22.76 26.75 22.88C27.1135 23.08 27.1942 23.16 27.1538 23.32C27.1538 23.48 27.0731 23.6 26.9519 23.72C26.8308 23.8 26.5885 24.12 26.4673 24.2C26.4673 24.2 26.3461 24.28 26.225 24.2C26.1038 24.12 26.225 23.92 26.2654 23.88C26.3058 23.84 26.5885 23.52 26.6288 23.52C26.6288 23.52 26.7096 23.44 26.6692 23.36C26.6692 23.28 26.5481 23.24 26.4673 23.28C26.3865 23.28 26.2654 23.44 26.225 23.48C26.225 23.48 26.225 23.48 26.1846 23.48C26.1846 23.44 26.1846 23.4 26.1846 23.4L26.225 23.48Z" fill="white"/>
<path fill-rule="evenodd" clip-rule="evenodd" d="M24.6904 24.68C24.6904 24.6 24.6096 24.36 24.4884 24.32C24.3673 24.28 24.2057 24.32 24.2057 24.44C24.2057 24.56 24.2057 24.92 24.2865 25.12C24.3673 25.32 24.6096 25.44 24.7711 25.44C24.8923 25.44 25.1346 25.44 25.2154 25.16C25.2154 25.16 25.2154 25.08 25.2154 25C25.2154 24.96 25.2961 24.72 25.4173 24.72C25.6192 24.72 25.8211 24.72 25.9019 24.72C25.9827 24.72 25.9827 24.8 25.9827 24.84C25.9827 24.92 26.0231 24.92 26.0634 24.92C26.1038 24.92 26.1846 24.92 26.1442 24.8C26.1038 24.68 25.9827 24.44 25.5788 24.44C25.5788 24.44 25.2961 24.44 25.175 24.64C25.0134 24.84 24.9731 24.92 24.8923 24.92C24.8115 24.92 24.6904 24.88 24.6904 24.72V24.68Z" fill="white"/>
<path fill-rule="evenodd" clip-rule="evenodd" d="M12.3731 21.88C12.3731 21.88 12.0096 22.2 12.0904 22.4C12.1712 22.6 12.3731 22.68 12.6154 22.64C12.8577 22.56 12.8981 22.44 12.8577 22.28C12.8173 22.12 12.7769 21.92 12.7365 21.84C12.7365 21.76 12.575 21.68 12.3327 21.84L12.3731 21.88Z" fill="white"/>
<path fill-rule="evenodd" clip-rule="evenodd" d="M13.2615 21.88C13.1404 21.92 12.8981 22.16 12.9789 22.44C13.0596 22.76 13.3019 22.84 13.4635 22.84C13.625 22.84 14.0289 22.76 13.8673 22.28C13.7058 21.8 13.3827 21.84 13.2615 21.88Z" fill="white"/>
<path fill-rule="evenodd" clip-rule="evenodd" d="M14.1096 22.04C14.1096 22.04 14.2711 22.24 14.2308 22.44C14.1904 22.64 14.15 22.76 14.3115 22.84C14.4327 22.92 14.7558 22.84 14.8365 22.72C14.9173 22.56 14.7961 22.24 14.6346 22.12C14.4731 22 14.3115 21.96 14.1904 21.92C14.1096 21.92 14.0692 21.92 14.0692 21.92C14.0692 21.92 14.1096 22 14.15 22.04H14.1096Z" fill="white"/>
<path fill-rule="evenodd" clip-rule="evenodd" d="M12.8173 21.44C12.8577 21.52 12.9385 21.64 13.1 21.68H13.1808C13.2615 21.6 13.4231 21.48 13.7058 21.52C13.7461 21.52 13.7865 21.52 13.7865 21.44C13.7865 21.24 13.7865 20.76 13.8269 20.4C13.9077 19.96 14.0692 19.44 14.15 19.32C14.15 19.24 14.15 19.2 14.1096 19.2C13.9481 19.28 13.7058 19.36 13.4635 19.16C13.2211 18.96 13.2211 18.68 13.2211 18.52C13.2211 18.52 13.2211 18.48 13.1808 18.52C13.1404 18.6 13.0596 18.76 13.1 18.96C13.1 19.28 13.1808 19.76 13.1 20.2C13.0192 20.6 12.8577 21.08 12.7769 21.32C12.7769 21.36 12.7769 21.44 12.7769 21.48L12.8173 21.44Z" fill="white"/>
<path fill-rule="evenodd" clip-rule="evenodd" d="M13.6654 18C13.5846 18.2 13.4634 18.72 13.7461 18.84C14.0288 19 14.5942 18.76 14.9173 18.36C15.2404 17.96 15.725 17.48 16.0077 16.88C16.2904 16.28 16.4519 15.48 16.1692 15.24C15.8865 15 15.4019 15.44 15.2404 15.6C15.0788 15.76 14.5942 16.32 14.1904 17C13.7865 17.64 13.7461 17.84 13.6654 18Z" fill="white"/>
<path fill-rule="evenodd" clip-rule="evenodd" d="M16.5731 16.12H16.5327C16.4519 16.36 16.25 16.96 16.0481 17.36C15.8461 17.72 15.5635 18.12 15.4019 18.24V18.32C15.4827 18.32 15.6442 18.32 15.7654 18.44C15.8865 18.52 15.9673 18.64 16.0481 18.76H16.1288C16.2096 18.56 16.4519 18 16.5327 17.52C16.6135 17.04 16.5731 16.44 16.5327 16.16L16.5731 16.12Z" fill="white"/>
<path fill-rule="evenodd" clip-rule="evenodd" d="M14.9981 15.36C15.2 15.16 15.8058 14.6 16.3308 14.96C16.9365 15.4 16.8961 16.24 16.8961 17.04C16.8961 17.04 16.9365 17.08 16.9769 17.04C17.0981 16.92 17.3808 16.64 17.6231 16.6C17.9461 16.52 18.1481 16.56 18.35 16.2C18.5519 15.84 18.8346 15.4 19.3596 15.4C19.8846 15.4 20.4096 15.64 20.7731 16H20.8538C20.8538 15.72 20.8942 14.92 20.4904 14.36C19.9654 13.68 19.2385 13.16 18.2692 13.16C18.2692 13.16 17.825 13.16 17.6635 13.2C17.5019 13.2 17.1385 13.28 17.0173 12.92C16.8961 12.56 17.0577 11.88 17.9058 11.68C18.7538 11.48 19.6827 11.92 19.925 12.04C20.1673 12.16 21.4192 12.92 21.8635 13.32C22.3077 13.68 23.3577 14.56 23.6404 14.8C23.9231 15.04 24.4481 15.6 25.5788 15.76C26.7096 15.92 27.3558 15.4 27.5577 15.16C27.7596 14.92 27.9615 14.32 27.6788 13.48C27.4769 12.8 27.0731 12.4 26.8711 12.2H26.8308C26.9115 12.44 27.1538 12.96 27.0327 13.24C26.9115 13.64 26.3865 14.04 26.225 14.2C26.0635 14.36 25.5788 14.8 25.5788 14.8C25.5788 14.8 25.4173 15 25.0538 14.88C24.6904 14.8 23.7211 14.4 23.1961 13.96C22.7115 13.52 21.5 12.6 20.975 12.28C20.45 11.96 19.1577 11.36 18.4308 11.36C17.7038 11.36 17.1385 11.52 16.8558 12.04C16.8558 12.04 16.6135 12.48 16.6538 13C16.6538 13 16.7346 13.32 16.4923 13.44C16.25 13.56 15.6846 13.92 15.4423 14.32C15.2404 14.64 15.0385 15.08 14.9173 15.32L14.9981 15.36Z" fill="white"/>
<path fill-rule="evenodd" clip-rule="evenodd" d="M15.7654 22.52C15.7654 22.52 15.3211 23.32 15.4019 24.16C15.4827 25 15.6846 25.12 15.7654 25.56C15.8058 25.96 15.7654 26.04 15.7654 26.04C15.7654 26.04 16.0481 25.88 16.2096 25.88C16.3711 25.88 16.6538 26 16.6538 26C16.6538 26 16.6538 25.36 16.8154 25.16C16.9365 24.96 17.2192 24.52 16.9769 23.96C16.8154 23.64 16.775 23.48 16.7346 23.4C16.7346 23.4 16.6942 23.32 16.6538 23.36C16.5731 23.36 16.3711 23.4 16.0884 23.28C15.725 23.12 15.725 22.56 15.725 22.56L15.7654 22.52Z" fill="white"/>
<path fill-rule="evenodd" clip-rule="evenodd" d="M16.1692 26.2C16.1692 26.2 15.5634 26.24 15.4019 26.64C15.2404 27 15.5231 26.92 15.5634 26.88C15.6038 26.88 15.6846 26.84 15.8057 26.88C15.9269 26.96 16.0481 27 16.1692 26.88C16.2904 26.76 16.4115 26.72 16.5731 26.88C16.7346 27 17.0173 27 17.0981 26.88C17.1788 26.8 16.8557 26.2 16.1692 26.2Z" fill="white"/>
<path fill-rule="evenodd" clip-rule="evenodd" d="M15.1596 27.08C15.1596 27.08 14.7961 27.08 14.7961 27.56C14.7961 28.04 15.2404 28.04 15.2808 28.04C15.3211 28.04 15.6038 27.92 15.6038 27.52C15.6038 27.12 15.2808 27.04 15.1192 27.08H15.1596Z" fill="white"/>
<path fill-rule="evenodd" clip-rule="evenodd" d="M16.25 27.2C16.25 27.2 15.8865 27.2 15.8865 27.64C15.8865 28.08 16.0481 28.2 16.25 28.2C16.4519 28.2 16.6942 28.08 16.6942 27.72C16.6942 27.36 16.4923 27.24 16.25 27.24V27.2Z" fill="white"/>
<path fill-rule="evenodd" clip-rule="evenodd" d="M17.2596 27.04C17.2596 27.04 16.9366 27.04 16.8962 27.48C16.8558 27.92 17.1789 28 17.2596 28C17.3404 28 17.6635 27.92 17.6635 27.68C17.6635 27.4 17.6635 27.04 17.2596 27.04Z" fill="white"/>
</g>
</g>
<defs>
<clipPath id="clip0_2427_242">
<rect width="42.8" height="62" fill="white"/>
</clipPath>
<clipPath id="clip1_2427_242">
<rect width="21" height="28" fill="white" transform="translate(11 9)"/>
</clipPath>
</defs>
</svg>
